<svg xmlns="http://www.w3.org/2000/svg" width="50.021" height="50.021" viewBox="0 0 50.021 50.021">
  <g id="Group_61" data-name="Group 61" transform="translate(-414.683 -905.367)">
    <g id="b9IkFD.tif" transform="translate(414.683 905.367)">
      <g id="Group_52" data-name="Group 52" transform="translate(0 0)">
        <g id="Group_51" data-name="Group 51">
          <path id="Path_9" data-name="Path 9" d="M1037.591,299.241c-.1.326-.177.658-.294.976a4.438,4.438,0,1,1-3.817-5.985c.385.033.765.12,1.158.184v-5.787l-7.435-1.4v.629c0,2.882.01,5.764,0,8.645a4.393,4.393,0,0,1-3.538,4.525,4.43,4.43,0,1,1-.706-8.761,11.625,11.625,0,0,1,1.294.182c.007-.163.021-.334.021-.5,0-2.035.029-4.071-.012-6.105a1.723,1.723,0,0,1,1.119-1.844h.781a1.006,1.006,0,0,0,.212.094c3.154.593,6.306,1.195,9.464,1.764a2.059,2.059,0,0,1,1.755,1.171Zm-4.456.918a1.51,1.51,0,1,0-1.5-1.529A1.515,1.515,0,0,0,1033.135,300.158Zm-11.891-3.48a1.5,1.5,0,0,0,1.5,1.526,1.511,1.511,0,1,0-1.5-1.526Z" transform="translate(-987.57 -284)" fill="#efa00b"/>
          <path id="Path_10" data-name="Path 10" d="M704,648.848a1.764,1.764,0,0,1,1.817-1.184,16.68,16.68,0,0,1,6.723.892.764.764,0,0,0,.5-.027,16.169,16.169,0,0,1,6.969-.833,1.474,1.474,0,0,1,1.468,1.616q.008,5.054,0,10.108a1.5,1.5,0,0,1-1.762,1.589,11.694,11.694,0,0,0-6.632,1.125H712.4a11.939,11.939,0,0,0-6.437-1.148c-1.122.074-1.467-.1-1.965-1.1Zm10.2,9.587,4.325-.5v-7.358a12.666,12.666,0,0,0-3.908.493.5.5,0,0,0-.426.576c.021,1.528.009,3.056.009,4.584Zm-2.931,0v-5.968c0-1.352.006-1.388-1.325-1.619-.979-.17-1.977-.231-2.983-.342v7.433Z" transform="translate(-704 -612.114)" fill="#efa00b"/>
          <path id="Path_11" data-name="Path 11" d="M1044.448,622.412c-3.327-1.1-4.778-3.781-5.639-6.862a7.414,7.414,0,0,1,.788-5.752,4.53,4.53,0,0,1,4.841-2.455,1.231,1.231,0,0,0,.614-.057,11.727,11.727,0,0,0-1.027-.878,1.479,1.479,0,1,1,1.561-2.488,6.31,6.31,0,0,1,2.667,3.316c.045.121.088.243.134.364.005.013.024.021.056.048.426-.09.863-.215,1.309-.273,2.779-.361,4.675.824,5.629,3.542.219.622.335,1.279.5,1.92V614.6c-.066.317-.109.641-.2.948-.94,3.067-2.336,5.762-5.659,6.867h-1.172a3.915,3.915,0,0,0-3.126,0Zm8.5-8.877a4.917,4.917,0,0,0-.753-2.5,1.624,1.624,0,0,0-1.705-.79,6.64,6.64,0,0,0-1.556.376,4.412,4.412,0,0,1-3.414-.005,6.749,6.749,0,0,0-1.46-.362,1.657,1.657,0,0,0-1.82.836,4.869,4.869,0,0,0-.712,2.4,7.5,7.5,0,0,0,2.72,5.664,1.152,1.152,0,0,0,1.228.26,5.317,5.317,0,0,1,3.535,0,1.152,1.152,0,0,0,1.222-.275,12.258,12.258,0,0,0,1.138-1.265A6.79,6.79,0,0,0,1052.947,613.535Z" transform="translate(-1005.858 -572.392)" fill="#efa00b"/>
          <path id="Path_12" data-name="Path 12" d="M704,307.9a13.258,13.258,0,0,1,.695-1.955,5.555,5.555,0,0,1,8.142-1.885c.132.093.262.189.408.294a5.446,5.446,0,0,1,3.783-1.327,5.345,5.345,0,0,1,4.962,3.357,5.109,5.109,0,0,1-.883,5.824c-2.207,2.388-4.561,4.639-6.871,6.93a1.391,1.391,0,0,1-2.022-.02q-3.376-3.353-6.723-6.736a5.178,5.178,0,0,1-1.4-2.84,2,2,0,0,0-.088-.275Zm9.234,8.064a.232.232,0,0,0,.073-.036c1.853-1.851,3.728-3.681,5.549-5.562a2.6,2.6,0,0,0-.111-3.657,2.648,2.648,0,0,0-3.629-.082c-.291.259-.551.553-.837.819a1.451,1.451,0,0,1-2.1-.015c-.3-.279-.566-.588-.875-.85a2.638,2.638,0,0,0-3.623.181,2.58,2.58,0,0,0-.079,3.583C709.446,312.248,711.351,314.093,713.234,315.965Z" transform="translate(-704 -301.16)" fill="#efa00b"/>
          <path id="Path_13" data-name="Path 13" d="M887.17,455.427a5.27,5.27,0,1,1,7.982-.014c.127.1.252.194.379.29a7.326,7.326,0,0,1,3.077,5.726c.032.666.029,1.335.014,2a1.43,1.43,0,0,1-1.544,1.517q-5.908.013-11.816,0a1.417,1.417,0,0,1-1.551-1.553,20.924,20.924,0,0,1,.227-3.394,6.924,6.924,0,0,1,2.886-4.319ZM895.689,462a4.51,4.51,0,0,0-2.389-4.231,4.3,4.3,0,0,0-4.9.409A4.346,4.346,0,0,0,886.644,462Zm-4.522-7.721a2.315,2.315,0,1,0-2.333-2.324A2.331,2.331,0,0,0,891.167,454.277Z" transform="translate(-866.153 -430.823)" fill="#efa00b"/>
          <path id="Path_14" data-name="Path 14" d="M720.791,472.527a22.51,22.51,0,0,1,.792-6.077,1.47,1.47,0,0,1,1.774-1.187,1.451,1.451,0,0,1,1.064,1.887,20.826,20.826,0,0,0,.218,11.506,1.461,1.461,0,1,1-2.8.836A22.624,22.624,0,0,1,720.791,472.527Z" transform="translate(-719.149 -447.516)" fill="#efa00b"/>
          <path id="Path_15" data-name="Path 15" d="M913.8,299.993a24.838,24.838,0,0,1,8.258,1.564,1.462,1.462,0,0,1,1,1.413,1.362,1.362,0,0,1-1.011,1.34,2.025,2.025,0,0,1-1.087-.049,20.538,20.538,0,0,0-8.137-1.237c-.762.039-1.521.14-2.28.222a1.477,1.477,0,0,1-1.7-1.173,1.432,1.432,0,0,1,1.273-1.7C911.341,300.211,912.572,300.116,913.8,299.993Z" transform="translate(-888.813 -298.431)" fill="#efa00b"/>
          <path id="Path_16" data-name="Path 16" d="M913.256,747.378c-1.536-.156-2.831-.266-4.12-.425a1.441,1.441,0,0,1-1.217-1.665,1.461,1.461,0,0,1,1.626-1.221,21.509,21.509,0,0,0,7.953-.211,1.462,1.462,0,1,1,.558,2.866C916.39,746.986,914.713,747.183,913.256,747.378Z" transform="translate(-887.981 -698.894)" fill="#efa00b"/>
          <path id="Path_17" data-name="Path 17" d="M1164.41,507.226a23.672,23.672,0,0,1-.918,6.358,1.451,1.451,0,0,1-2.394.745,1.418,1.418,0,0,1-.422-1.516,21.348,21.348,0,0,0,.69-7.635,1.458,1.458,0,0,1,2.909-.192C1164.34,505.73,1164.366,506.479,1164.41,507.226Z" transform="translate(-1116.001 -482.169)" fill="#efa00b"/>
        </g>
      </g>
    </g>
  </g>
</svg>
