<svg id="Group_671" data-name="Group 671" xmlns="http://www.w3.org/2000/svg" xmlns:xlink="http://www.w3.org/1999/xlink" width="82.004" height="82" viewBox="0 0 82.004 82">
  <defs>
    <clipPath id="clip-path">
      <rect id="Rectangle_316" data-name="Rectangle 316" width="82.004" height="82" fill="#cef7b4"/>
    </clipPath>
  </defs>
  <g id="Group_670" data-name="Group 670" clip-path="url(#clip-path)">
    <path id="Path_263" data-name="Path 263" d="M38.563,0h4.669a4.109,4.109,0,0,0,.586.125,40.819,40.819,0,0,1,22,8.249,1.55,1.55,0,0,0,1.153.212,9.485,9.485,0,0,1,5.846.4,4.742,4.742,0,0,0,1.494.248c.8.032,1.624-.11,2.412,0a3.6,3.6,0,0,1,1.145,6.7c-1.041.578-2.114,1.1-3.2,1.658.2.313.34.53.481.746a40.1,40.1,0,0,1,5.873,31.307C76.2,72.123,53.783,86.376,31.532,80.783,14.993,76.627,4.811,65.8.872,49.187.424,47.3.283,45.334,0,43.4V38.563c.05-.222.116-.443.148-.667.236-1.679.386-3.375.71-5.037A40.909,40.909,0,0,1,33.625.7C35.262.41,36.917.229,38.563,0M53.711,28.166c-.361.176-.669.322-.974.475q-7.324,3.689-14.647,7.381a5.026,5.026,0,0,1-5.7-.341c-2.323-1.841-4.492-3.877-6.7-5.855a1.107,1.107,0,0,1-.062-1.751,6.151,6.151,0,0,1,3.9-1.843,7.52,7.52,0,0,1,4,1.2,1.446,1.446,0,0,0,1.64-.06c4.149-2.541,8.325-5.038,12.491-7.551.309-.187.608-.39.977-.628-1.945-1.7-3.807-3.332-5.666-4.965-1-.883-1-1.512.014-2.408.906-.8,1.843-1.572,2.714-2.411A1.846,1.846,0,0,1,47.874,9c3.133,1.228,6.305,2.36,9.419,3.634a2.573,2.573,0,0,0,2.754-.268c1.212-.848,2.524-1.553,3.8-2.325a1.329,1.329,0,0,0-.127-.165C53.4,2.576,42.145.67,29.987,4.048a1.2,1.2,0,0,0-.69.821c-.2,1.449-.361,2.909-.418,4.37-.04,1.031.145,2.068.165,3.1a4.937,4.937,0,0,1-2.819,4.777c-.993.518-2.035.94-3.062,1.392a8.834,8.834,0,0,0-5.572,7.041,13.037,13.037,0,0,1-1.886,5.422A5.359,5.359,0,0,1,8.167,32.8c-.752-.417-1.442-.948-2.153-1.437-.635-.436-1.26-.887-1.946-1.373-.112.341-.2.578-.268.821a37.607,37.607,0,0,0-.632,17.707,38.005,38.005,0,0,0,12.35,21.37,1.275,1.275,0,0,0,.92.367,1.355,1.355,0,0,1,1.748.832,4.253,4.253,0,0,0,.969,1.6,32.109,32.109,0,0,0,7.081,3.9,2.875,2.875,0,0,0,.132-.385,9.166,9.166,0,0,1,4.764-6.658,48.322,48.322,0,0,1,6.4-2.968,4.517,4.517,0,0,0,3.071-3.217,22.121,22.121,0,0,0,.692-4.419c.147-4.463.12-8.932.242-13.4.146-5.338,3.183-8.022,8.382-7.278a21.913,21.913,0,0,1,5.093,1.569,10.9,10.9,0,0,0,9.115.055c1.149-.53,2.313-1.03,3.453-1.58a29.893,29.893,0,0,1,7.523-2.469c1.293-.242,2.6-.386,4-.589A37.981,37.981,0,0,0,72.45,18.695c-2.646,1.333-5.227,2.654-7.829,3.93a1.292,1.292,0,0,0-.827,1.234c-.265,3.59-.595,7.176-.883,10.765a1.688,1.688,0,0,1-1.188,1.614c-1.13.427-2.228.935-3.343,1.4-1.44.6-1.936.348-2.362-1.185-.76-2.741-1.525-5.48-2.306-8.288m25.628,9.5c-1.443.219-2.808.4-4.163.638a35.36,35.36,0,0,0-9.264,3.466,13.555,13.555,0,0,1-12.077.2,19.054,19.054,0,0,0-3.677-1.212c-3.952-.87-6.044.763-6.194,4.811-.083,2.245-.029,4.494-.085,6.741-.074,2.936-.079,5.88-.327,8.8-.335,3.931-1.912,6.962-6.148,8.087a16.324,16.324,0,0,0-6.16,3.217,6.783,6.783,0,0,0-2.527,4.1c-.127.693.007,1.064.783,1.295A38.9,38.9,0,0,0,45.81,79.223,37.861,37.861,0,0,0,68.491,67.957a37.514,37.514,0,0,0,10.81-22.9,71.64,71.64,0,0,0,.038-7.394M4.8,27.575c.775.529,1.465.992,2.147,1.468s1.337,1,2.046,1.441c2.111,1.3,3.844.9,4.93-1.321A16.219,16.219,0,0,0,15.2,25.072a11.054,11.054,0,0,1,6.3-8.431c.828-.4,1.673-.764,2.517-1.13,2.373-1.026,2.771-1.82,2.593-4.417-.118-1.712,0-3.442.017-5.164,0-.213,0-.426,0-.756A39.129,39.129,0,0,0,4.8,27.575M64.142,20.12c.368-.167.627-.272.877-.4q5.2-2.62,10.407-5.246a4.145,4.145,0,0,0,1.2-.656,2.071,2.071,0,0,0,.6-1.29,1.026,1.026,0,0,0-1.157-.933c-.777.011-1.554.108-2.33.1a3.21,3.21,0,0,1-1.33-.234,6.77,6.77,0,0,0-6.9.4c-2.181,1.346-4.385,2.652-6.579,3.976Q47.24,22.884,35.563,29.946a1.934,1.934,0,0,1-2.166.113A24.814,24.814,0,0,0,30.986,28.9a2.742,2.742,0,0,0-2.562.127c1.581,1.4,3.086,2.729,4.586,4.064,1.568,1.4,2.506,1.525,4.378.581q6.822-3.441,13.642-6.887c.64-.324,1.595-.535,1.811-1.048.232-.553-.232-1.4-.392-2.119-.019-.084-.036-.169-.058-.253a1.292,1.292,0,0,1,.7-1.588c3.087-1.734,6.163-3.487,9.256-5.211,1.131-.63,2.021-.066,1.973,1.229-.027.737-.112,1.472-.18,2.324m-2.4-.432c-2.242,1.265-4.349,2.438-6.43,3.658-.161.094-.237.539-.176.774.494,1.892,1.031,3.774,1.553,5.659.488,1.758.975,3.517,1.473,5.318a17,17,0,0,1,1.615-.664,1.041,1.041,0,0,0,.8-1.125c.088-1.523.262-3.041.392-4.562.253-2.954.5-5.909.767-9.057m-5.8-4.886c-.081-.1-.109-.162-.156-.18-2.733-1.048-5.466-2.1-8.206-3.125a.751.751,0,0,0-.619.071c-.574.452-1.108.955-1.688,1.467,1.774,1.551,3.455,3.034,5.16,4.49a.819.819,0,0,0,.72.152c1.608-.93,3.19-1.905,4.789-2.874" fill="#cef7b4"/>
    <path id="Path_264" data-name="Path 264" d="M38.6,92.639c-1.065.007-1.731-.87-1.336-1.618.855-1.621,1.788-3.2,2.763-4.757a1.05,1.05,0,0,1,1.6-.246,1.112,1.112,0,0,1,.349,1.592c-.84,1.469-1.679,2.939-2.573,4.375a2.769,2.769,0,0,1-.8.654" transform="translate(-19.313 -44.589)" fill="#cef7b4"/>
    <path id="Path_265" data-name="Path 265" d="M31.614,131.572a1.031,1.031,0,0,1-.912,1.363,1.086,1.086,0,0,1-1.348-1.013c-.181-1.712-.324-3.431-.393-5.151A1.181,1.181,0,0,1,30.2,125.5c.678.021,1.12.541,1.161,1.343.081,1.577.171,3.155.257,4.732" transform="translate(-15.058 -65.25)" fill="#cef7b4"/>
    <path id="Path_266" data-name="Path 266" d="M29.967,110.754c.528-1.756,1.016-3.526,1.605-5.261a1.046,1.046,0,0,1,1.438-.6,1.081,1.081,0,0,1,.769,1.361q-.652,2.541-1.4,5.057a1.071,1.071,0,0,1-1.371.747,1.346,1.346,0,0,1-1.042-1.307" transform="translate(-15.581 -54.494)" fill="#cef7b4"/>
    <path id="Path_267" data-name="Path 267" d="M154.952,58.636c-.384.392-.658.851-1.06,1.037a.989.989,0,0,1-1.375-.54c-.563-1.379-1.085-2.778-1.547-4.194a.962.962,0,0,1,.7-1.288c.425-.085,1.206.048,1.339.322.71,1.46,1.266,3,1.939,4.661" transform="translate(-78.465 -27.882)" fill="#cef7b4"/>
    <path id="Path_268" data-name="Path 268" d="M53.216,75.08c.022,1.02-2.2,3.241-2.972,3.116a1.483,1.483,0,0,1-.988-.658,1.326,1.326,0,0,1,.087-1.178,12.533,12.533,0,0,1,2.018-1.973,1.4,1.4,0,0,1,1.19-.069c.331.143.529.594.664.762" transform="translate(-25.56 -38.589)" fill="#cef7b4"/>
  </g>
</svg>
