<svg xmlns="http://www.w3.org/2000/svg" width="19.798" height="15.839" viewBox="0 0 19.798 15.839">
  <path id="Icon_awesome-city" data-name="Icon awesome-city" d="M19.056,5.939H14.849V.742A.742.742,0,0,0,14.106,0H9.652a.742.742,0,0,0-.742.742V2.97H6.929V.495A.5.5,0,0,0,6.434,0H5.939a.5.5,0,0,0-.495.495V2.97H3.465V.495A.5.5,0,0,0,2.97,0H2.475A.5.5,0,0,0,1.98.495V2.97H.742A.742.742,0,0,0,0,3.712V14.849a.99.99,0,0,0,.99.99H18.808a.99.99,0,0,0,.99-.99V6.682A.742.742,0,0,0,19.056,5.939ZM3.96,12.5a.371.371,0,0,1-.371.371H2.351A.371.371,0,0,1,1.98,12.5V11.26a.371.371,0,0,1,.371-.371H3.588a.371.371,0,0,1,.371.371Zm0-2.97a.371.371,0,0,1-.371.371H2.351a.371.371,0,0,1-.371-.371V8.291a.371.371,0,0,1,.371-.371H3.588a.371.371,0,0,1,.371.371Zm0-2.97a.371.371,0,0,1-.371.371H2.351a.371.371,0,0,1-.371-.371V5.321a.371.371,0,0,1,.371-.371H3.588a.371.371,0,0,1,.371.371ZM7.919,12.5a.371.371,0,0,1-.371.371H6.311a.371.371,0,0,1-.371-.371V11.26a.371.371,0,0,1,.371-.371H7.548a.371.371,0,0,1,.371.371Zm0-2.97a.371.371,0,0,1-.371.371H6.311a.371.371,0,0,1-.371-.371V8.291a.371.371,0,0,1,.371-.371H7.548a.371.371,0,0,1,.371.371Zm0-2.97a.371.371,0,0,1-.371.371H6.311a.371.371,0,0,1-.371-.371V5.321a.371.371,0,0,1,.371-.371H7.548a.371.371,0,0,1,.371.371Zm4.95,2.97A.371.371,0,0,1,12.5,9.9H11.26a.371.371,0,0,1-.371-.371V8.291a.371.371,0,0,1,.371-.371H12.5a.371.371,0,0,1,.371.371Zm0-2.97a.371.371,0,0,1-.371.371H11.26a.371.371,0,0,1-.371-.371V5.321a.371.371,0,0,1,.371-.371H12.5a.371.371,0,0,1,.371.371Zm0-2.97a.371.371,0,0,1-.371.371H11.26a.371.371,0,0,1-.371-.371V2.351a.371.371,0,0,1,.371-.371H12.5a.371.371,0,0,1,.371.371Zm4.95,8.909a.371.371,0,0,1-.371.371H16.21a.371.371,0,0,1-.371-.371V11.26a.371.371,0,0,1,.371-.371h1.237a.371.371,0,0,1,.371.371Zm0-2.97a.371.371,0,0,1-.371.371H16.21a.371.371,0,0,1-.371-.371V8.291a.371.371,0,0,1,.371-.371h1.237a.371.371,0,0,1,.371.371Z" fill="#64697a"/>
</svg>
