<svg xmlns="http://www.w3.org/2000/svg" width="28.497" height="19" viewBox="0 0 28.497 19">
  <path id="Icon_map-boat-tour" data-name="Icon map-boat-tour" d="M28.623,25.477A3.874,3.874,0,0,1,27,25.112a4.129,4.129,0,0,0-1.735-.387,4.194,4.194,0,0,0-1.754.387,4.249,4.249,0,0,1-3.446,0,4.31,4.31,0,0,0-1.776-.387,4.361,4.361,0,0,0-1.785.387,4.273,4.273,0,0,1-3.456,0,4.3,4.3,0,0,0-3.564,0,4.292,4.292,0,0,1-3.465,0,4.3,4.3,0,0,0-3.565,0,4.406,4.406,0,0,1-1.733.365V22.942a4.384,4.384,0,0,0,1.732-.369,4.3,4.3,0,0,1,3.564,0,4.256,4.256,0,0,0,3.465,0,4.3,4.3,0,0,1,3.565,0,4.239,4.239,0,0,0,3.458,0,4.3,4.3,0,0,1,3.566,0,4.256,4.256,0,0,0,3.465,0,4.322,4.322,0,0,1,1.779-.387A3.909,3.909,0,0,1,27,22.574a3.859,3.859,0,0,0,1.623.369ZM.737,14.791l-.01,5.883a4.343,4.343,0,0,0,1.729-.416,4.355,4.355,0,0,1,1.782-.414,4.3,4.3,0,0,1,1.779.375,4.321,4.321,0,0,0,3.465-.009,4.288,4.288,0,0,1,3.564,0,4.282,4.282,0,0,0,3.458,0,4.293,4.293,0,0,1,3.566,0,4.324,4.324,0,0,0,1.733.365,4.545,4.545,0,0,0,.509-.055,5.66,5.66,0,0,0,.923-.211l.02-.01a13.655,13.655,0,0,0,5.36-4.611l.6-.893Zm15.9-6.53h4.182c.047,0,1.129-.167,1.493.625l1.571,3.531H18.522L16.633,8.261ZM5.469,12.049c0,.277-.228.367-.508.367h-2.3c-.28,0-.755-.09-.755-.367v-3.4c0-.273.475-.388.755-.388h2.3c.28,0,.508.115.508.388v3.4Zm9.5,0c0,.277-.248.367-.531.367h-2.3c-.283,0-.735-.09-.735-.367v-3.4c0-.273.452-.388.735-.388h2.3c.283,0,.531.115.531.388v3.4Zm-4.749,0c0,.277-.247.367-.53.367H7.407c-.284,0-.75-.09-.75-.367v-3.4c0-.273.467-.388.75-.388H9.689c.283,0,.53.115.53.388v3.4Zm12.791-4.2A2.715,2.715,0,0,0,20.477,6.48H.723l0,7.124H25.485Z" transform="translate(-0.72 -6.477)" fill="#64697a"/>
</svg>
