<svg xmlns="http://www.w3.org/2000/svg" width="16.325" height="13.606" viewBox="0 0 16.325 13.606">
  <path id="Path_202" data-name="Path 202" d="M16.134,36.609c-2.708,0-5.417-.013-8.125,0a4.882,4.882,0,0,0-3.682,1.649c-1.2,1.31-2.379,2.646-3.577,3.961a2.776,2.776,0,0,0-.718,1.5c-.007.046-.021.091-.032.136v.51q.652,2.211,1.3,4.422a1.924,1.924,0,0,0,1.907,1.421q5.817,0,11.635,0a1.375,1.375,0,0,0,1.338-.772,2.914,2.914,0,0,0,.141-.417v-12.4c-.063,0-.127-.008-.19-.008M2.164,42.721a.626.626,0,0,1,.056-.089c1.073-1.193,2.128-2.4,3.226-3.573A3.376,3.376,0,0,1,7.92,37.972c2.3-.025,4.591-.008,6.887-.008.046,0,.093.005.146.009v4.747ZM14.523,45H12.674a.462.462,0,1,1,0-.925h1.849a.462.462,0,1,1,0,.925" transform="translate(0 -36.604)" fill="#64697a"/>
</svg>
