<svg id="Group_525" data-name="Group 525" xmlns="http://www.w3.org/2000/svg" xmlns:xlink="http://www.w3.org/1999/xlink" width="141.404" height="29.433" viewBox="0 0 141.404 29.433">
  <defs>
    <clipPath id="clip-path">
      <rect id="Rectangle_224" data-name="Rectangle 224" width="141.404" height="29.433" fill="none"/>
    </clipPath>
  </defs>
  <g id="Group_524" data-name="Group 524" clip-path="url(#clip-path)">
    <path id="Path_149" data-name="Path 149" d="M397.417,0a5.427,5.427,0,0,0,.533.31,18.224,18.224,0,0,1,11.278,14.979,12.877,12.877,0,0,1,.068,1.692c.008.749-.247,1.078-.8,1.083s-.84-.342-.854-1.051a16.438,16.438,0,0,0-3.043-9.3,16.358,16.358,0,0,0-7.41-5.884c-.52-.211-.991-.47-.816-1.108.075-.276.407-.481.623-.719Z" transform="translate(-340.29)" fill="#f25a27"/>
    <path id="Path_150" data-name="Path 150" d="M273.259,39.5a14.193,14.193,0,0,1,3.7,4.281,14.951,14.951,0,0,1-3.172,18.627,2.675,2.675,0,0,1-3.826.028c-2.786-2.323-5.553-4.668-8.346-6.983a4.6,4.6,0,0,0-1.48-.9,1.682,1.682,0,0,0-2.167,1.253c-.493,1.764-.974,3.532-1.464,5.3a6.13,6.13,0,0,1-.283.869c-.538,1.2-1.078,1.315-2.05.448a14.98,14.98,0,0,1-.6-21.982,2.741,2.741,0,0,1,2.977-.927,4.3,4.3,0,0,1,1.246.771q4.94,4.116,9.855,8.261a2.051,2.051,0,0,0,2,.574,1.644,1.644,0,0,0,1.255-1.272c.619-2.459,1.289-4.906,1.952-7.354a9.557,9.557,0,0,1,.4-.991" transform="translate(-213.84 -33.794)" fill="#f25a27"/>
    <path id="Path_151" data-name="Path 151" d="M926.293,96.16c-.29,1.52-.583,3.04-.868,4.561-.108.578-.174,1.165-.311,1.736-.043.18-.249.454-.387.458-1.337.035-2.675.021-4.093.021.279-1.589.542-3.088.8-4.588a5.06,5.06,0,0,0,.182-1.25c-.028-.327-.24-.865-.441-.9a1.5,1.5,0,0,0-1.173.31,2.569,2.569,0,0,0-.516,1.276c-.329,1.682-.611,3.373-.919,5.107h-4.418c.3-1.747.59-3.458.885-5.169.224-1.3.468-2.592.675-3.893.071-.444.228-.649.718-.627a23.362,23.362,0,0,0,2.614,0c.7-.048.943.231.872.889-.02.184,0,.373,0,.746a4.645,4.645,0,0,1,3.392-1.94c1.656-.02,2.252.364,2.986,1.994Z" transform="translate(-784.889 -79.757)" fill="#fff"/>
    <path id="Path_152" data-name="Path 152" d="M0,98.543c.1-.36.193-.719.285-1.079a6,6,0,0,1,5.4-4.551,7.154,7.154,0,0,1,3.471.4,2.573,2.573,0,0,1,1.6,3.206.711.711,0,0,1-.5.411c-.869.043-1.742.021-2.613.019-.163,0-.327-.017-.49-.025l.118-.187c-.363-.259-.7-.663-1.1-.745a1.134,1.134,0,0,0-1.234.86,9.962,9.962,0,0,0-.488,2.036c-.066.475.062,1.053.627,1.1a1.746,1.746,0,0,0,1.3-.4,1.316,1.316,0,0,1,1.139-.467c.938.018,1.877.006,2.876.006a3.413,3.413,0,0,1-1.375,2.836,7.773,7.773,0,0,1-7.34.542A3.745,3.745,0,0,1,0,100.1V98.543" transform="translate(0 -79.736)" fill="#fff"/>
    <path id="Path_153" data-name="Path 153" d="M508.235,94.685c.44-.389.819-.775,1.248-1.094a3.921,3.921,0,0,1,3.289-.665,1.846,1.846,0,0,1,1.593,2.031c-.1,1.52-.364,3.03-.588,4.54-.145.977-.33,1.949-.534,2.915-.036.173-.246.438-.381.441-1.338.033-2.677.02-4.087.02.316-1.811.619-3.542.918-5.274a1.9,1.9,0,0,0,.076-.7c-.066-.29-.206-.757-.378-.787a1.207,1.207,0,0,0-.981.28,2.645,2.645,0,0,0-.509,1.211c-.329,1.709-.61,3.428-.92,5.206h-4.405q.444-2.566.884-5.12a2.377,2.377,0,0,0,.093-.835c-.059-.283-.229-.71-.426-.757a1.039,1.039,0,0,0-.909.284,3.9,3.9,0,0,0-.544,1.424c-.324,1.659-.6,3.328-.894,5.026h-4.425l1.691-9.683c1.247,0,2.445-.012,3.642.017a.556.556,0,0,1,.379.372,8.577,8.577,0,0,1,.018,1.247c.98-1.029,1.893-1.9,3.26-1.953a2.434,2.434,0,0,1,2.889,1.85" transform="translate(-426.169 -79.694)" fill="#fff"/>
    <path id="Path_154" data-name="Path 154" d="M93.294,102.888c-1.236,0-2.409.015-3.581-.02-.145,0-.353-.253-.406-.427a2.006,2.006,0,0,1-.017-.641,16.249,16.249,0,0,1-2.707,1.22c-2.346.589-3.864-.507-4.019-2.9a8.141,8.141,0,0,1,1.425-5.349,4.308,4.308,0,0,1,4.631-1.833,7.8,7.8,0,0,1,2,1.077c.088-1.017.933-.882,1.743-.86.843.023,1.687.005,2.621.005l-1.7,9.725m-3.319-5.614c-.173-.583-.173-1.136-.785-1.348a1.252,1.252,0,0,0-1.42.535,3.579,3.579,0,0,0-.738,2.445c0,.5.116,1.013.706,1.175a1.1,1.1,0,0,0,1.332-.556c.368-.717.611-1.5.907-2.252" transform="translate(-70.871 -79.708)" fill="#fff"/>
    <path id="Path_155" data-name="Path 155" d="M635.277,103.4c-.717-.112-1.449-.169-2.149-.347a3.428,3.428,0,0,1-2.793-3.507,5.934,5.934,0,0,1,5.934-6.492,10.336,10.336,0,0,1,2.383.137,3.883,3.883,0,0,1,3.284,4.456c-.319,3.668-2.681,5.687-6.66,5.753m2.415-5.8c-.13-.633-.158-1.227-.832-1.437a1.223,1.223,0,0,0-1.536.684,7.3,7.3,0,0,0-.585,1.923,1.1,1.1,0,0,0,.656,1.392,1.23,1.23,0,0,0,1.557-.629,13.865,13.865,0,0,0,.739-1.933" transform="translate(-541.198 -79.884)" fill="#fff"/>
    <path id="Path_156" data-name="Path 156" d="M834.524,92.759a13.512,13.512,0,0,1,1.405.11c2.932.529,4.223,2.911,3.3,6.059-.722,2.467-2.685,3.94-5.615,4.126a10.933,10.933,0,0,1-2.526-.139c-2.426-.418-3.57-2.24-3.136-4.875.565-3.427,2.849-5.256,6.569-5.281m.764,4.593c-.152-.666-.235-1.245-.9-1.439a1.23,1.23,0,0,0-1.529.711,8.245,8.245,0,0,0-.59,2,1.073,1.073,0,0,0,.63,1.286,1.153,1.153,0,0,0,1.486-.473,15.8,15.8,0,0,0,.9-2.083" transform="translate(-710.801 -79.643)" fill="#fff"/>
    <path id="Path_157" data-name="Path 157" d="M727.56,73.389l-.5,3.044h2.027l-.5,2.946A15.5,15.5,0,0,0,727,79.4a.7.7,0,0,0-.494.4,16.713,16.713,0,0,0-.339,1.8c-.127.832.175,1.2,1.009,1.233.3.013.607,0,1.006,0-.183,1.048-.343,2.055-.549,3.052a.59.59,0,0,1-.423.357,18.354,18.354,0,0,1-3.16.1c-2.125-.234-2.908-1.417-2.52-3.533.2-1.107.39-2.217.6-3.4l-1.268-.068c.139-.8.232-1.558.429-2.291.047-.175.431-.339.676-.365a1.334,1.334,0,0,0,1.192-1.012c.216-.6.516-1.159.734-1.754a.749.749,0,0,1,.851-.544c.89.029,1.781.009,2.816.009" transform="translate(-618.929 -63.003)" fill="#fff"/>
    <path id="Path_158" data-name="Path 158" d="M171.952,93.139c1.234,0,2.407-.018,3.578.021.158.005.419.289.438.465a16.484,16.484,0,0,1,.021,1.727,4.922,4.922,0,0,1,3.747-2.548c-.178,1.325-.334,2.576-.532,3.821-.021.133-.271.29-.44.329-.479.11-.976.141-1.457.246a2.439,2.439,0,0,0-2.01,2.1c-.214,1.154-.406,2.312-.617,3.518H170.26l1.692-9.676" transform="translate(-146.185 -79.682)" fill="#fff"/>
    <path id="Path_159" data-name="Path 159" d="M785,105.118h-4.4l1.683-9.648h4.41L785,105.118" transform="translate(-670.214 -81.97)" fill="#fff"/>
    <path id="Path_160" data-name="Path 160" d="M796.813,60.5a2.635,2.635,0,0,1,2.567-2.568,1.743,1.743,0,0,1,1.8,1.837A2.709,2.709,0,0,1,798.55,62.3a1.681,1.681,0,0,1-1.737-1.8" transform="translate(-684.141 -49.736)" fill="#fff"/>
  </g>
</svg>
