<svg xmlns="http://www.w3.org/2000/svg" width="20.976" height="20.976" viewBox="0 0 20.976 20.976">
  <g id="Group_592" data-name="Group 592" transform="translate(-841.944 -647.611)">
    <path id="Path_213" data-name="Path 213" d="M2740.55,1c.363.051.728.09,1.089.154a10.432,10.432,0,0,1,6.009,3.325c.036.04.067.084.1.126l.051-.017c0-.159,0-.318,0-.477a.615.615,0,1,1,1.228,0q.006,1.177,0,2.355a.635.635,0,0,1-.683.676q-1.126,0-2.253,0a.616.616,0,1,1,0-1.228c.369,0,.737,0,1.105-.006.005,0,.01-.006.03-.02a1.333,1.333,0,0,0-.082-.126,9.171,9.171,0,0,0-6.514-3.5,8.875,8.875,0,0,0-2.964.241.635.635,0,0,1-.691-.181.574.574,0,0,1-.11-.612.569.569,0,0,1,.444-.384c.576-.1,1.155-.193,1.732-.289.067-.011.132-.025.2-.037Z" transform="translate(-1887.421 646.611)" fill="#64697a"/>
    <path id="Path_214" data-name="Path 214" d="M2584,38c.052-.37.092-.743.158-1.11a10.432,10.432,0,0,1,3.321-5.987c.04-.037.079-.075.118-.113,0,0,0-.012,0-.042-.168,0-.335,0-.5,0a.62.62,0,0,1-.639-.608.612.612,0,0,1,.628-.618q1.2-.008,2.4,0a.62.62,0,0,1,.658.636q.016,1.177,0,2.354a.6.6,0,0,1-.616.583.6.6,0,0,1-.606-.594c-.009-.387,0-.774,0-1.209-.111.086-.191.143-.266.207a9.118,9.118,0,0,0-3.406,7.529,17.91,17.91,0,0,0,.25,1.84,1.248,1.248,0,0,1,0,.461.581.581,0,0,1-.581.4.589.589,0,0,1-.577-.465c-.111-.568-.2-1.14-.293-1.711l-.039-.239Z" transform="translate(-1742.056 619.487)" fill="#64697a"/>
    <path id="Path_215" data-name="Path 215" d="M2894.152,155.827c-.051.377-.089.756-.155,1.13a10.428,10.428,0,0,1-3.295,5.981,1.954,1.954,0,0,1-.159.12l.027.056c.16,0,.32,0,.48,0a.613.613,0,1,1,.022,1.225c-.8.008-1.6.011-2.4,0a.637.637,0,0,1-.668-.695q0-1.085,0-2.171a.617.617,0,1,1,1.228-.009c0,.354,0,.708,0,1.1.084-.062.143-.1.2-.145a9.189,9.189,0,0,0,3.413-6.069,8.914,8.914,0,0,0-.2-3.371.638.638,0,0,1,.181-.691.611.611,0,0,1,1,.333c.1.577.193,1.155.289,1.733.011.067.025.133.038.2Z" transform="translate(-2031.231 502.846)" fill="#64697a"/>
    <path id="Path_216" data-name="Path 216" d="M2619.338,311.1c-.37-.052-.741-.093-1.109-.158a10.435,10.435,0,0,1-5.974-3.306.4.4,0,0,0-.168-.132c0,.161,0,.321,0,.482a.614.614,0,1,1-1.227,0q-.007-1.188,0-2.375a.618.618,0,0,1,.641-.654c.771-.011,1.542-.009,2.313,0a.614.614,0,0,1,.6.608.622.622,0,0,1-.613.616c-.191.006-.382,0-.573,0h-.576a1.013,1.013,0,0,0,.07.119,9.191,9.191,0,0,0,6.112,3.49,8.969,8.969,0,0,0,3.391-.2.631.631,0,0,1,.83.45.614.614,0,0,1-.534.739c-.561.109-1.129.186-1.693.277-.06.01-.119.024-.178.036Z" transform="translate(-1767.602 357.486)" fill="#64697a"/>
    <path id="Path_217" data-name="Path 217" d="M2673.948,84.195a6.76,6.76,0,1,1-6.759-6.766,6.771,6.771,0,0,1,6.759,6.766m-5.763.319c.392-.128.757-.256,1.128-.362a.5.5,0,0,1,.322.028c.382.18.754.382,1.133.57a.614.614,0,1,0,.58-1.082c-.322-.176-.652-.336-.991-.51.166-.327.324-.635.479-.945a.617.617,0,1,0-1.1-.555c-.194.375-.383.753-.578,1.129-.027.052-.06.124-.107.14-.408.142-.821.274-1.251.415,0-.422-.007-.811.005-1.2a.435.435,0,0,1,.108-.264c.306-.322.629-.626.935-.948a.607.607,0,0,0,0-.866.614.614,0,0,0-.868,0c-.091.083-.174.173-.261.26l-.542.541c-.261-.267-.5-.514-.74-.754a.618.618,0,1,0-.862.875c.293.3.59.589.881.885.045.046.107.107.108.162.01.427.005.854.005,1.3-.395-.129-.765-.242-1.129-.374a.465.465,0,0,1-.232-.195c-.209-.383-.4-.778-.6-1.162a.613.613,0,1,0-1.079.581l.489.97c-.336.172-.652.331-.966.495a.611.611,0,0,0-.3.844.618.618,0,0,0,.844.253,4.579,4.579,0,0,0,.671-.348,1.19,1.19,0,0,1,1.313-.1,4.955,4.955,0,0,0,.6.208c-.261.359-.5.692-.744,1.018a.289.289,0,0,1-.169.09q-.635.109-1.273.2a.639.639,0,0,0-.532.364.579.579,0,0,0,.063.619.629.629,0,0,0,.655.236l1.038-.165c.015.081.026.14.036.2.052.316.1.634.159.948a.58.58,0,0,0,.487.463.6.6,0,0,0,.709-.659,6.157,6.157,0,0,0-.149-.97.93.93,0,0,1,.217-.953,7.089,7.089,0,0,0,.5-.678c.234.322.439.62.662.9a.5.5,0,0,1,.1.434c-.074.416-.148.833-.194,1.253a.592.592,0,0,0,.658.674.626.626,0,0,0,.568-.6c.052-.334.1-.668.16-1.02.348.055.669.112.992.154a1.057,1.057,0,0,0,.383,0,.589.589,0,0,0,.44-.613.614.614,0,0,0-.539-.58c-.437-.075-.875-.139-1.313-.212a.269.269,0,0,1-.16-.068c-.253-.336-.5-.679-.763-1.044" transform="translate(-1814.756 573.911)" fill="#64697a"/>
  </g>
</svg>
