<svg xmlns="http://www.w3.org/2000/svg" width="15.996" height="16" viewBox="0 0 15.996 16">
  <g id="Group_588" data-name="Group 588" transform="translate(-706.952 -647.5)">
    <path id="Path_204" data-name="Path 204" d="M1548.937,114.624h-.25c-.443-.184-.326-.59-.349-.929h-5.928c-.015.351.091.746-.346.929h-.25a.565.565,0,0,1-.345-.629.662.662,0,0,0,0-.217.183.183,0,0,0-.1-.119,1.1,1.1,0,0,1-.835-1.106q0-4.481,0-8.962a1.284,1.284,0,0,1,.053-.368,1.086,1.086,0,0,1,1.123-.763h7.321c.052,0,.1,0,.156,0a1.08,1.08,0,0,1,.969.738l.06.175v9.405c-.016.043-.034.085-.048.128a1.059,1.059,0,0,1-.761.735c-.114.031-.14.079-.13.18.006.057,0,.115,0,.171a.564.564,0,0,1-.344.629m-5.592-6.547v-2.093c0-.593,0-1.187,0-1.78a.469.469,0,1,0-.936.006q0,3.865,0,7.731c0,.021,0,.042,0,.062a.477.477,0,0,0,.423.432.459.459,0,0,0,.486-.332.846.846,0,0,0,.025-.23q0-1.9,0-3.8m4.061-.016v1.031q0,1.429,0,2.858a.467.467,0,0,0,.924.114.794.794,0,0,0,.012-.171q0-3.818,0-7.637a1.12,1.12,0,0,0,0-.125.468.468,0,0,0-.728-.342.493.493,0,0,0-.208.445q0,1.913,0,3.826" transform="translate(-827.27 548.876)" fill="#64697a"/>
    <path id="Path_205" data-name="Path 205" d="M1373.167,194.493a.572.572,0,0,1-.345-.645c.006-.057,0-.115,0-.172.008-.089-.015-.133-.116-.159a1.074,1.074,0,0,1-.82-1.05q0-2.968,0-5.936a1.079,1.079,0,0,1,1.074-1.094c1.406-.007,2.811,0,4.217,0,.02,0,.04,0,.081.008v.183c0,2.156,0,4.311,0,6.467a2.446,2.446,0,0,0,.33,1.461h-3.824c-.015.361.091.756-.346.94Zm.594-5c0,.765,0,1.53,0,2.3a.473.473,0,0,0,.288.475.467.467,0,0,0,.649-.46q0-1.648,0-3.3,0-.664,0-1.327a.469.469,0,1,0-.936,0c0,.77,0,1.541,0,2.311" transform="translate(-664.933 469.007)" fill="#64697a"/>
    <path id="Path_206" data-name="Path 206" d="M1619.7,2.889h-.927V2.716c0-.479,0-.958,0-1.436,0-.24-.1-.34-.343-.341q-.741,0-1.483,0c-.263,0-.36.1-.36.356,0,.525,0,1.051,0,1.589h-.928c0-.04-.009-.08-.009-.12,0-.5,0-1.01,0-1.514A1.217,1.217,0,0,1,1616.888,0q.788,0,1.577,0a1.215,1.215,0,0,1,1.242,1.231c0,.531,0,1.062,0,1.593a.572.572,0,0,1-.009.064" transform="translate(-899.571 647.5)" fill="#64697a"/>
    <path id="Path_207" data-name="Path 207" d="M1464.223,110.176h-.943a7.946,7.946,0,0,1,.066-1.039,1.151,1.151,0,0,1,1.068-.9c.331-.017.663,0,.978,0l-.2.932h-.567c-.308,0-.391.083-.392.385q0,.289,0,.577a.326.326,0,0,1-.01.047" transform="translate(-752.908 543.321)" fill="#64697a"/>
  </g>
</svg>
