<svg id="Group_676" data-name="Group 676" xmlns="http://www.w3.org/2000/svg" xmlns:xlink="http://www.w3.org/1999/xlink" width="77.301" height="79.06" viewBox="0 0 77.301 79.06">
  <defs>
    <clipPath id="clip-path">
      <rect id="Rectangle_318" data-name="Rectangle 318" width="77.301" height="79.06" fill="none"/>
    </clipPath>
  </defs>
  <g id="Group_675" data-name="Group 675" clip-path="url(#clip-path)">
    <path id="Path_269" data-name="Path 269" d="M19.632,79.06l-2.384-.98c-.541,1.008-1.629.891-2.685.878-.979-.011-1.959-.013-2.938-.02a5.543,5.543,0,0,1-5.346-4q-.957-3.577-1.65-7.221a7.022,7.022,0,0,1,.121-2.739c.476-2.159,1.059-4.3,1.65-6.428a1.2,1.2,0,0,0-.316-1.318,3.556,3.556,0,0,1-.616-.788,1.063,1.063,0,0,1,.274-1.455,1.057,1.057,0,0,1,1.481.049,9.613,9.613,0,0,1,1.527,1.731,1.988,1.988,0,0,1,.136,1.38c-.578,2.4-1.266,4.776-1.816,7.183a6.305,6.305,0,0,0-.059,2.495c.374,2,.889,3.965,1.348,5.946a3.386,3.386,0,0,0,3.568,2.835,6.452,6.452,0,0,0,1.689-.15,10.764,10.764,0,0,1-1.586-.874,2.763,2.763,0,0,1-.97-1.2c-.562-1.791-1.047-3.607-1.5-5.428a3.684,3.684,0,0,1,2.611-4.726,5.715,5.715,0,0,0,4.338-5.219,1.545,1.545,0,0,1,1.376-1.493c5.177-1.136,10.346-2.313,15.518-3.471.968-.217,1.339-.038,1.834.836,1.307,2.307,1.523,2.39,4.043,1.609q.883-.274,1.779-.506a2.639,2.639,0,0,1,2.386.581c1.265,1,1.61,3.815.519,5.008a4.13,4.13,0,0,1-1.774.926,4.924,4.924,0,0,1-1.441.027c.012,1.659.333,1.919,1.774,1.528.745-.2,1.485-.423,2.233-.612a1.038,1.038,0,0,0,.891-1.006c.209-2.257.438-4.512.67-6.767a1.062,1.062,0,0,0-.794-1.162c-1.8-.775-3.584-1.565-5.374-2.352-1.284-.566-1.382-1-.911-2.279a9.725,9.725,0,0,0,.738-3.2c.016-2.984-.156-5.971-.255-9.016H26.564c-.045.415-.1.864-.141,1.313-.109,1.193-.326,1.443-1.487,1.726-4.174,1.02-8.345,2.053-12.522,3.061a7.528,7.528,0,0,0-6.136,6.347c-.173.915-.679,1.357-1.371,1.254a1.148,1.148,0,0,1-.883-1.655A3.4,3.4,0,0,0,3.2,45.992a5.478,5.478,0,0,1-.881-5.622,3.8,3.8,0,0,0-.677-4.092A18.926,18.926,0,0,1,.284,34.4a1.133,1.133,0,0,1,.852-1.91,20.5,20.5,0,0,1,4.154-.174c2.668.313,4.95,2.83,4.242,6.466-.172.882-.25,1.783-.339,2.678a2.955,2.955,0,0,0,.071.707Q16.4,40.408,23.5,38.669a.741.741,0,0,0,.68-.754c.117-1.532.35-3.059.4-4.592.071-2.137.014-4.278.019-6.417a3.906,3.906,0,0,1,.97-2.774.911.911,0,0,0,.252-.532c.026-.868.012-1.738.012-2.457a26.954,26.954,0,0,1-2.257,3.39,9.022,9.022,0,0,1-2.638,1.815,1.52,1.52,0,0,1-1.376-.2,1.669,1.669,0,0,1-.243-1.307c.19-1.191.543-2.355.735-3.546a10.227,10.227,0,0,0-.655-4.621,17.092,17.092,0,0,1-.907-5.768,10.888,10.888,0,0,1,4.325-8.127A11.607,11.607,0,0,1,30.88.01c2.29.09,4.587.016,6.881.018,1.076,0,1.386.3,1.33,1.387-.117,2.238-.239,4.478-.4,6.713a2.661,2.661,0,0,0,.536,1.994A6.132,6.132,0,0,1,40.5,13.787c.044,1.6.035,3.2.031,4.793,0,1.048-.393,1.426-1.45,1.451-.307.008-.613,0-1.091,0,.764.984,1.458,1.886,2.166,2.777.065.082.225.1.346.124a1.519,1.519,0,0,0,.308.006c1.288-.011,2.738.344,3.816-.138,1.045-.466,1.717-1.78,2.536-2.737q5.051-5.9,10.09-11.817c.115-.135.213-.283.452-.6-1.148-.176-2.166-.374-3.193-.48-1.274-.13-1.6-.448-1.606-1.753,0-.927-.013-1.855,0-2.783.018-1.053.515-1.5,1.551-1.444C63.582,1.7,69.842,6.52,74.07,14.325a24.227,24.227,0,0,1,2.753,9.738,1.473,1.473,0,0,0,.2.72,1.361,1.361,0,0,1,0,1.636,4.611,4.611,0,0,0-.309,1.549C75.5,37.138,70.891,43.946,62.573,48.1a18.823,18.823,0,0,1-8.218,1.885c-.98.015-1.429-.4-1.448-1.385q-.032-1.584,0-3.17a1.212,1.212,0,0,1,1.237-1.376c1.015-.14,2.033-.255,3.228-.4-.262-.356-.41-.578-.58-.784Q52.381,37.536,47.972,32.2a1.264,1.264,0,0,0-1.1-.541c-1.615.031-3.231.012-4.81.012v7.742c2,.283,3.878.564,5.763.814a3.706,3.706,0,0,1,3.51,3.32c.34,1.926.692,3.851,1.039,5.776a3.5,3.5,0,0,1-1.881,4.166,3.254,3.254,0,0,0-1.985,3.328c-.033,2-.349,4-.567,6a3.081,3.081,0,0,1-2.312,2.787c-1.056.327-2.121.641-3.2.884a3.148,3.148,0,0,1-3.945-2.78q-.139-.954-.249-1.915a1.252,1.252,0,0,1,1.33-1.574c.844-.03,1.69-.006,2.521-.006a1.2,1.2,0,0,0,.108-.276c.1-1.787-.048-1.894-1.771-1.36a13.638,13.638,0,0,1-2.376.655,4.087,4.087,0,0,1-4.3-2.246.715.715,0,0,0-.972-.414c-1.244.324-2.505.588-3.768.836a.793.793,0,0,0-.723.813c-.492,3.689-2.3,6.316-6.009,7.431-1.348.406-1.725,1.183-1.353,2.551.431,1.589.862,3.179,1.341,4.754a1.518,1.518,0,0,0,.63.78,17.749,17.749,0,0,0,2.457,1.3c1.858.75,2.29,2.944.16,4.026Zm54.6-56.6C72.928,11.893,63.4,3.6,55.256,3.69V4.808c.74.147,1.474.254,2.187.441,4.813,1.264,8.284,4.308,10.992,8.346a1.165,1.165,0,1,1-1.888,1.345c-.409-.529-.765-1.1-1.184-1.622A17.147,17.147,0,0,0,59.924,8.7L47.779,22.939c1.025,0,1.84-.006,2.655,0a4.92,4.92,0,0,1,3.15,1.069,1.89,1.89,0,0,0,1.083.406c4.353.028,8.707.018,13.06.018h.818c-.047-.9.078-1.643.974-1.974-.063-.314-.1-.594-.175-.864-.232-.868-.5-1.729-.71-2.6a1.055,1.055,0,0,1,.725-1.349,1.122,1.122,0,0,1,1.448.684,4.063,4.063,0,0,1,.194.585c.33,1.178.656,2.356.987,3.548ZM59.664,42.678c5.514-3.132,8.557-7.919,9.906-13.989-1.053-.29-.985-1.143-1.078-1.866H55.105c-.009,2.985-1.667,4.455-4.491,4.934l9.05,10.922M39.608,35.236c0-1.422,0-2.806,0-4.19,0-1.335.364-1.705,1.691-1.709,2.524-.006,5.048,0,7.572,0a20.112,20.112,0,0,0,2.081-.069,1.949,1.949,0,0,0,1.637-1.246c.6-1.4-.458-2.744-2.194-2.746q-10.856-.013-21.712,0c-1.307,0-1.748.451-1.751,1.781q-.009,3.748,0,7.5c0,.223.031.446.048.691ZM36.689,2.271c-2.32,0-4.506-.047-6.688.016a8.656,8.656,0,0,0-4.373,1.367c-3.188,2-5.161,4.74-4.74,8.681a29.217,29.217,0,0,0,1.019,4.58,12.729,12.729,0,0,1,.5,4.343c-.027.359-.07.715-.106,1.073a2.7,2.7,0,0,0,.729-1.013c.817-2.025,1.633-4.051,2.406-6.093a7.975,7.975,0,0,0,.511-2,7.439,7.439,0,0,1,6.316-6.263,8.63,8.63,0,0,1,4.149.625l.278-5.319m.424,20.623a5.12,5.12,0,0,0-3.484-2.778c-1.932-.656-2.127-1.129-1.614-3.106a4.85,4.85,0,0,1,.15-.519A3.807,3.807,0,0,1,35.253,13.9c1.236-.2,2.374-.174,2.879,1.339a9.115,9.115,0,0,0,.041-1.464,5,5,0,0,0-4.9-4.55A4.829,4.829,0,0,0,28.3,13.562c-.169,3.053-.082,6.12-.1,9.181,0,.043.049.085.091.152ZM23.153,76.709l.051-.148c-.609-.323-1.2-.68-1.83-.959a2.18,2.18,0,0,1-1.285-1.608c-.447-1.77-.986-3.516-1.423-5.287a5.276,5.276,0,0,1-.158-1.972c.28-1.916,1.585-2.866,3.347-3.41a5.632,5.632,0,0,0,4.024-5.144,4.883,4.883,0,0,0-.523.058c-1.833.4-3.657.852-5.5,1.207a1.474,1.474,0,0,0-1.378,1.324,6.313,6.313,0,0,1-2.143,3.752,1.95,1.95,0,0,0-.723,2.168c.552,2.485,1.1,4.971,1.723,7.439a3.713,3.713,0,0,0,2.9,2.572c.973.043,1.948.009,2.923.009M55.273,47.543c9.464-.353,17.873-9.433,18.95-18.828h-2.2c-2.3,9.086-6.978,15.8-16.754,17.738ZM45.22,51.74c1.216.883,2.408,1.259,3.624.084a1.565,1.565,0,0,1,.393-.243,1.5,1.5,0,0,0,.849-1.792c-.364-2-.718-4-1.078-5.994A1.363,1.363,0,0,0,47.8,42.577c-1.831-.267-3.664-.509-5.458-.757v4.317c2.84-1.409,4.83-1.006,5.748,1.072.886,2.006.019,3.389-2.865,4.531M5.676,45.42A16.351,16.351,0,0,0,6.83,44.134a1.464,1.464,0,0,0,.221-.816c0-1.2-.078-2.4-.042-3.6.022-.714.241-1.42.305-2.136a2.819,2.819,0,0,0-3.934-2.794c1.811,1.969,1.947,4.152,1.074,6.607A3.757,3.757,0,0,0,5.676,45.42m9.307,29.022c-.627-2.741-1.234-5.4-1.841-8.056-1.221.342-1.6.972-1.3,2.123.325,1.241.765,2.459.983,3.716a2.656,2.656,0,0,0,2.16,2.217m27.9-23.623c.411-1.209,1.5-1.26,2.424-1.606.29-.109.731-.48.7-.65a1.354,1.354,0,0,0-.662-.905,1.67,1.67,0,0,0-1.141.162c-.487.219-.888.641-1.381.834A1.647,1.647,0,0,0,41.73,50.29l1.157.529M70.933,26.367c1.194-.206,2.487.47,3.371-.777-.907-1.289-2.19-.622-3.371-.788Zm-33.825-7.4c-.348-.821-.615-1.454-.884-2.086-.336-.787-.873-.9-1.445-.241a5.836,5.836,0,0,0-.624,1.2l2.953,1.129" transform="translate(0 0)"/>
  </g>
</svg>
