<svg xmlns="http://www.w3.org/2000/svg" width="35.735" height="37.387" viewBox="0 0 35.735 37.387">
  <g id="Mn9XjI.tif" transform="translate(-1283.463 -284)">
    <g id="Group_54" data-name="Group 54" transform="translate(1283.463 284)">
      <g id="Group_53" data-name="Group 53" transform="translate(0 0)">
        <path id="Path_18" data-name="Path 18" d="M1291.023,284h1.241c.213.04.431.065.639.123,1.449.4,2.9.8,4.344,1.23a15.258,15.258,0,0,0,3.628.762,13.5,13.5,0,0,0,4.532-.823c1.2-.362,2.392-.733,3.6-1.033a6.606,6.606,0,0,1,3.885.135,9.789,9.789,0,0,1,5.5,5.348,9.475,9.475,0,0,1,.392,6.606c-.466,1.808-1.069,3.583-1.666,5.354a14.3,14.3,0,0,0-.831,4.564,38.968,38.968,0,0,1-.814,8.008,14.882,14.882,0,0,1-1.821,4.932,3.991,3.991,0,0,1-5.768,1.447,5.364,5.364,0,0,1-2.062-2.582,24.264,24.264,0,0,1-1.3-4.358,20.629,20.629,0,0,0-1.241-4.108,2.06,2.06,0,0,0-2.175-1.434,2.181,2.181,0,0,0-1.644,1.085,11.449,11.449,0,0,0-1.36,3.208c-.538,1.778-1.043,3.567-1.619,5.332a8.518,8.518,0,0,1-.864,1.72,3.927,3.927,0,0,1-2.7,1.871h-.949a8.992,8.992,0,0,1-.918-.327,5.184,5.184,0,0,1-2.237-2.422,16.843,16.843,0,0,1-1.521-4.394,43.207,43.207,0,0,1-.924-8.91,8.458,8.458,0,0,0-.442-2.5c-.668-2.08-1.4-4.141-2.012-6.238a10.624,10.624,0,0,1-.115-5.732,10.105,10.105,0,0,1,2.08-3.851,7.8,7.8,0,0,1,3.687-2.693C1290.041,284.171,1290.538,284.1,1291.023,284Zm25.053,9.484a6.238,6.238,0,0,0-1.881-4.563,4.516,4.516,0,0,0-5.449-1.455c-1.46.414-2.9.9-4.364,1.3a11.668,11.668,0,0,1-4.373.359,21.89,21.89,0,0,1-4.139-.992c-1.09-.336-2.182-.677-3.29-.944a3.513,3.513,0,0,0-3.2.655,7.849,7.849,0,0,0-2.424,3.277,7.536,7.536,0,0,0-.033,4.842c.464,1.633,1.052,3.232,1.587,4.845a15.561,15.561,0,0,1,.935,4.217c.093,2.052.217,4.105.43,6.147a18.12,18.12,0,0,0,1.292,5.257,9.529,9.529,0,0,0,.974,1.653c.219.314.423.292.7.025a1.465,1.465,0,0,0,.308-.4,10.245,10.245,0,0,0,.64-1.426c.557-1.811,1.05-3.641,1.616-5.449a11.5,11.5,0,0,1,2-3.941,5.066,5.066,0,0,1,7.831.076,10.805,10.805,0,0,1,1.689,3.689c.427,1.558.758,3.142,1.2,4.694a10.181,10.181,0,0,0,.93,2.2,1.062,1.062,0,0,0,1.969.041,1.452,1.452,0,0,0,.135-.216,30.1,30.1,0,0,0,1.091-2.925,32,32,0,0,0,.956-7.875,15.952,15.952,0,0,1,.822-5.3c.335-.925.654-1.856.969-2.788A16.506,16.506,0,0,0,1316.076,293.484Z" transform="translate(-1283.463 -284)" fill="#efa00b"/>
      </g>
    </g>
  </g>
</svg>
