<svg id="Group_667" data-name="Group 667" xmlns="http://www.w3.org/2000/svg" width="42.046" height="42.046" viewBox="0 0 42.046 42.046">
  <g id="b9IkFD.tif" transform="translate(0 0)">
    <g id="Group_52" data-name="Group 52">
      <g id="Group_51" data-name="Group 51">
        <path id="Path_9" data-name="Path 9" d="M1034.511,296.811c-.082.274-.148.553-.248.82a3.73,3.73,0,1,1-3.208-5.031c.323.028.643.1.973.155v-4.864l-6.249-1.173v.529c0,2.422.009,4.845,0,7.267a3.692,3.692,0,0,1-2.974,3.8,3.724,3.724,0,1,1-.593-7.364,9.762,9.762,0,0,1,1.088.153c.006-.137.018-.281.018-.424,0-1.711.024-3.422-.01-5.132a1.449,1.449,0,0,1,.941-1.55h.657a.847.847,0,0,0,.178.079c2.651.5,5.3,1,7.955,1.483a1.731,1.731,0,0,1,1.475.984Zm-3.745.771a1.269,1.269,0,1,0-1.264-1.285A1.274,1.274,0,0,0,1030.766,297.582Zm-10-2.925a1.263,1.263,0,0,0,1.26,1.283,1.27,1.27,0,1,0-1.26-1.283Z" transform="translate(-992.465 -284)" fill="#fff"/>
        <path id="Path_10" data-name="Path 10" d="M704,648.655a1.483,1.483,0,0,1,1.527-1,14.019,14.019,0,0,1,5.651.75.643.643,0,0,0,.422-.023,13.591,13.591,0,0,1,5.858-.7,1.239,1.239,0,0,1,1.234,1.359q.007,4.248,0,8.5a1.258,1.258,0,0,1-1.481,1.336,9.829,9.829,0,0,0-5.574.946h-.575a10.034,10.034,0,0,0-5.41-.965c-.943.062-1.233-.084-1.652-.924Zm8.574,8.059,3.636-.419V650.11a10.651,10.651,0,0,0-3.285.415.421.421,0,0,0-.358.484c.018,1.284.008,2.569.008,3.853Zm-2.464,0v-5.016c0-1.137.005-1.167-1.114-1.361-.823-.143-1.662-.194-2.508-.287v6.248Z" transform="translate(-704 -617.778)" fill="#fff"/>
        <path id="Path_11" data-name="Path 11" d="M1043.506,619.416c-2.8-.921-4.016-3.178-4.74-5.768a6.231,6.231,0,0,1,.663-4.835,3.808,3.808,0,0,1,4.069-2.064,1.034,1.034,0,0,0,.516-.048,9.861,9.861,0,0,0-.864-.738,1.243,1.243,0,1,1,1.312-2.091,5.3,5.3,0,0,1,2.242,2.788c.038.1.074.2.113.306,0,.011.02.018.047.04.358-.076.725-.181,1.1-.229a4.028,4.028,0,0,1,4.732,2.977c.184.522.282,1.075.419,1.614v1.478c-.056.266-.091.539-.171.8-.79,2.578-1.963,4.843-4.756,5.772h-.985a3.292,3.292,0,0,0-2.628,0Zm7.143-7.461a4.136,4.136,0,0,0-.633-2.1,1.365,1.365,0,0,0-1.434-.664,5.586,5.586,0,0,0-1.308.316,3.709,3.709,0,0,1-2.87,0,5.667,5.667,0,0,0-1.228-.3,1.393,1.393,0,0,0-1.53.7,4.092,4.092,0,0,0-.6,2.019,6.307,6.307,0,0,0,2.286,4.76.968.968,0,0,0,1.032.219,4.468,4.468,0,0,1,2.972,0,.968.968,0,0,0,1.028-.231,10.3,10.3,0,0,0,.956-1.064A5.707,5.707,0,0,0,1050.65,611.954Z" transform="translate(-1011.069 -577.37)" fill="#fff"/>
        <path id="Path_12" data-name="Path 12" d="M704,307.122a11.153,11.153,0,0,1,.584-1.643,4.67,4.67,0,0,1,6.844-1.584c.111.078.22.159.343.247a4.577,4.577,0,0,1,3.18-1.115,4.492,4.492,0,0,1,4.171,2.822,4.294,4.294,0,0,1-.742,4.9c-1.855,2.007-3.834,3.9-5.775,5.826a1.17,1.17,0,0,1-1.7-.017q-2.838-2.818-5.651-5.662a4.353,4.353,0,0,1-1.18-2.388,1.683,1.683,0,0,0-.074-.231Zm7.762,6.778a.2.2,0,0,0,.061-.03c1.558-1.556,3.133-3.094,4.664-4.675a2.189,2.189,0,0,0-.093-3.074,2.226,2.226,0,0,0-3.05-.069c-.245.218-.463.465-.7.688a1.22,1.22,0,0,1-1.766-.013c-.249-.234-.475-.494-.735-.714a2.217,2.217,0,0,0-3.046.152,2.169,2.169,0,0,0-.067,3.012C708.578,310.776,710.179,312.327,711.762,313.9Z" transform="translate(-704 -301.456)" fill="#fff"/>
        <path id="Path_13" data-name="Path 13" d="M886.619,454.039a4.43,4.43,0,1,1,6.709-.012c.106.081.212.164.318.244a6.158,6.158,0,0,1,2.587,4.813c.027.56.024,1.122.012,1.682a1.2,1.2,0,0,1-1.3,1.275q-4.966.011-9.932,0a1.191,1.191,0,0,1-1.3-1.305,17.583,17.583,0,0,1,.191-2.853,5.82,5.82,0,0,1,2.426-3.63Zm7.16,5.523a3.79,3.79,0,0,0-2.008-3.557,3.616,3.616,0,0,0-4.119.344,3.653,3.653,0,0,0-1.476,3.213Zm-3.8-6.49a1.946,1.946,0,1,0-1.961-1.954A1.959,1.959,0,0,0,889.979,453.072Z" transform="translate(-868.953 -433.358)" fill="#fff"/>
        <path id="Path_14" data-name="Path 14" d="M720.79,471.362a18.918,18.918,0,0,1,.665-5.108,1.236,1.236,0,0,1,1.491-1,1.22,1.22,0,0,1,.894,1.586,17.5,17.5,0,0,0,.183,9.672,1.228,1.228,0,1,1-2.35.7A19.018,19.018,0,0,1,720.79,471.362Z" transform="translate(-719.411 -450.338)" fill="#fff"/>
        <path id="Path_15" data-name="Path 15" d="M913.006,299.993a20.88,20.88,0,0,1,6.942,1.315,1.229,1.229,0,0,1,.843,1.188,1.144,1.144,0,0,1-.849,1.126,1.7,1.7,0,0,1-.913-.041,17.262,17.262,0,0,0-6.839-1.04c-.641.032-1.278.117-1.916.186a1.241,1.241,0,0,1-1.43-.986,1.2,1.2,0,0,1,1.07-1.431C910.94,300.176,911.974,300.1,913.006,299.993Z" transform="translate(-892.003 -298.68)" fill="#fff"/>
        <path id="Path_16" data-name="Path 16" d="M912.4,746.81c-1.291-.131-2.38-.224-3.464-.357a1.211,1.211,0,0,1-1.023-1.4,1.229,1.229,0,0,1,1.367-1.026,18.078,18.078,0,0,0,6.685-.177,1.229,1.229,0,1,1,.469,2.409C915.036,746.481,913.627,746.646,912.4,746.81Z" transform="translate(-891.157 -706.056)" fill="#fff"/>
        <path id="Path_17" data-name="Path 17" d="M1163.8,506.652a19.919,19.919,0,0,1-.772,5.344,1.22,1.22,0,0,1-2.012.627,1.192,1.192,0,0,1-.355-1.274,17.946,17.946,0,0,0,.58-6.418,1.225,1.225,0,0,1,2.445-.161C1163.745,505.4,1163.768,506.024,1163.8,506.652Z" transform="translate(-1123.113 -485.59)" fill="#fff"/>
      </g>
    </g>
  </g>
</svg>
