<svg xmlns="http://www.w3.org/2000/svg" width="50.217" height="50.021" viewBox="0 0 50.217 50.021">
  <g id="Group_62" data-name="Group 62" transform="translate(-194.621 -905.367)">
    <g id="_9THh1O.tif" data-name="9THh1O.tif" transform="translate(194.621 905.367)">
      <g id="Group_50" data-name="Group 50" transform="translate(0 0)">
        <g id="Group_49" data-name="Group 49">
          <path id="Path_7" data-name="Path 7" d="M714.985,285a25.79,25.79,0,0,1,2.813.6,10.438,10.438,0,0,1,7.119,10.852,12.083,12.083,0,0,1-1.738,5.249q-2.913,4.85-5.811,9.709c-.1.166-.192.336-.332.58.236.011.419.026.6.027,2.451.012,4.905-.048,7.353.053a5.453,5.453,0,0,1-.193,10.888c-4.412.05-8.825,0-13.238.039a3.951,3.951,0,0,0-1.729.415,2.742,2.742,0,0,0-1.295,3.2,2.828,2.828,0,0,0,2.786,2.052c6.439,0,12.879-.016,19.318.022.922.006,1.5-.071,1.848-1.116a4.325,4.325,0,0,1,2.73-2.581.591.591,0,0,0,.454-.664q-.019-10.419-.009-20.838c0-.935.405-1.522,1.2-1.646a1.805,1.805,0,0,1,.9.114q7.711,3.061,15.413,6.144a2.007,2.007,0,0,1,1.039,1.036v.785a2.561,2.561,0,0,1-1.306,1.17c-4.64,2.287-9.269,4.593-13.909,6.88a.631.631,0,0,0-.406.672c.016,1.879.02,3.759,0,5.638a.664.664,0,0,0,.5.739,5.164,5.164,0,0,1-.227,9.66,13.581,13.581,0,0,1-1.519.351h-.49a1.423,1.423,0,0,0-.234-.069,5.1,5.1,0,0,1-4.236-3.068c-.13-.275-.3-.287-.539-.286q-3.751,0-7.5,0c-4.43,0-8.859.032-13.288-.016a5.774,5.774,0,0,1,.31-11.544q6.375-.011,12.749,0c.245,0,.491,0,.735-.019a2.539,2.539,0,0,0-.422-5.059c-3.236-.008-6.473-.014-9.709.006a1.83,1.83,0,0,1-1.748-1.009q-3.593-6.156-7.227-12.288a12.23,12.23,0,0,1-1.5-3.757c-.092-.444-.166-.893-.248-1.339v-2.06a3.154,3.154,0,0,0,.089-.327,10.3,10.3,0,0,1,7.524-8.731A19.438,19.438,0,0,1,714,285Zm-.555,25.615c2.251-3.788,4.483-7.475,6.638-11.206a7.591,7.591,0,1,0-13.494-6.9,8.073,8.073,0,0,0,.645,7.558c1.726,2.963,3.475,5.912,5.214,8.867C713.747,309.466,714.063,310,714.43,310.615Zm24.2,4.26,10.521-5.222-10.521-4.208Zm-3.749,14.9a2.252,2.252,0,0,0,2.209,2.276,2.284,2.284,0,0,0,2.288-2.26,2.25,2.25,0,0,0-2.248-2.236A2.223,2.223,0,0,0,734.884,329.773Z" transform="translate(-704 -285)" fill="#efa00b"/>
          <path id="Path_8" data-name="Path 8" d="M767.495,356.082a4.64,4.64,0,1,1,4.638-4.651A4.632,4.632,0,0,1,767.495,356.082Zm-1.708-4.647a1.689,1.689,0,0,0,1.705,1.711,1.7,1.7,0,0,0,.011-3.4A1.673,1.673,0,0,0,765.787,351.435Z" transform="translate(-757.075 -340.741)" fill="#efa00b"/>
        </g>
      </g>
    </g>
  </g>
</svg>
