<svg xmlns="http://www.w3.org/2000/svg" width="45.17" height="38.641" viewBox="0 0 45.17 38.641">
  <g id="Sgx2xE.tif" transform="translate(-1273.168 -320.309)">
    <g id="Group_58" data-name="Group 58" transform="translate(1273.168 320.309)">
      <g id="Group_57" data-name="Group 57" transform="translate(0 0)">
        <path id="Path_22" data-name="Path 22" d="M1318.338,337.869a28.472,28.472,0,0,1-.526,2.8,15.6,15.6,0,0,1-12.439,11.617,3.717,3.717,0,0,1-1.383-.158c-.386-.072-.762-.2-1.164-.311-.071.137-.14.264-.2.394a16.911,16.911,0,0,1-3.937,5.152,5.62,5.62,0,0,1-3.149,1.415,15.881,15.881,0,0,1-16.956-9.2c-1.74-3.693-3.462-7.395-5.212-11.083a1.584,1.584,0,0,1,.177-1.8,18.167,18.167,0,0,1,4.226-3.908,39.591,39.591,0,0,1,13.715-6.127c.263-.06.359-.164.352-.44-.019-.735,0-1.471-.008-2.206a1.369,1.369,0,0,1,.755-1.3,15.174,15.174,0,0,1,4.9-1.681c1.719-.3,3.465-.446,5.2-.661.13-.016.258-.045.386-.069h4.061c.114.023.227.055.341.067,1.243.127,2.491.208,3.726.385a20.137,20.137,0,0,1,5.906,1.7,2.33,2.33,0,0,1,1.237,1.118Zm-16.805,7.8a12.169,12.169,0,0,0-.908-5.112c-1.74-3.837-3.543-7.646-5.335-11.459a.492.492,0,0,0-.4-.213c-.962.109-1.934.189-2.879.392a35.9,35.9,0,0,0-10.143,4.06,23.117,23.117,0,0,0-5.572,4.213.518.518,0,0,0-.1.685q2.393,5.056,4.759,10.125a13.207,13.207,0,0,0,13.543,7.861,4.32,4.32,0,0,0,2.825-1.218A13.232,13.232,0,0,0,1301.532,345.672Zm2.342-4.1c.114,1.338.316,2.609.3,3.877s-.235,2.558-.369,3.87a3.525,3.525,0,0,0,1.823.217,13.2,13.2,0,0,0,10.029-12.654c.056-3.94.01-7.881.02-11.822,0-.245-.067-.381-.3-.452-1.039-.311-2.059-.71-3.117-.931a37.034,37.034,0,0,0-13.072-.258,17.614,17.614,0,0,0-4.369,1.182c-.126.054-.3.19-.306.3-.035.432-.014.868-.014,1.328.517,0,.971-.008,1.426,0a1.465,1.465,0,0,1,1.417.932c.384.858.8,1.7,1.195,2.553a2.458,2.458,0,0,0,.857,1.109,1.508,1.508,0,0,0,2.172,0,1.33,1.33,0,0,1,1.771,1.984,3.911,3.911,0,0,1-2.254,1.108c-.165.022-.329.052-.532.085.773,1.656,1.513,3.253,2.273,4.841a.449.449,0,0,0,.373.152c.393-.044.778-.166,1.171-.2a7.45,7.45,0,0,1,6.063,2.175,1.315,1.315,0,0,1-.6,2.235,1.426,1.426,0,0,1-1.394-.452A4.842,4.842,0,0,0,1303.874,341.568Z" transform="translate(-1273.168 -320.309)" fill="#efa00b"/>
        <path id="Path_23" data-name="Path 23" d="M1430.274,594.872c-.788-.159-1.587-.278-2.361-.49a1.316,1.316,0,0,1-.988-1.7,1.349,1.349,0,0,1,1.775-.844,4.906,4.906,0,0,0,6.236-2.931,1.337,1.337,0,1,1,2.453,1.04A7.808,7.808,0,0,1,1430.274,594.872Z" transform="translate(-1413.269 -564.313)" fill="#efa00b"/>
        <path id="Path_24" data-name="Path 24" d="M1474.56,499.227a9.417,9.417,0,0,1,1.01.194,1.333,1.333,0,1,1-.714,2.564,1.341,1.341,0,0,0-1.221.137,2.28,2.28,0,0,0-.6.73,1.367,1.367,0,0,1-1.786.75,1.353,1.353,0,0,1-.652-1.854A4.184,4.184,0,0,1,1474.56,499.227Z" transform="translate(-1453.014 -483.403)" fill="#efa00b"/>
        <path id="Path_25" data-name="Path 25" d="M1374.588,545.39c.442.1.894.158,1.324.292a1.305,1.305,0,0,1,.9,1.589,1.342,1.342,0,0,1-1.6.969c-1.173-.227-1.446-.1-2.035.975a1.328,1.328,0,0,1-2.42-1.081A4.231,4.231,0,0,1,1374.588,545.39Z" transform="translate(-1362.057 -525.483)" fill="#efa00b"/>
        <path id="Path_26" data-name="Path 26" d="M1658.485,438.924a4.071,4.071,0,0,1-2.825-1.145,1.319,1.319,0,0,1-.1-1.892,1.334,1.334,0,0,1,1.864-.105,1.434,1.434,0,0,0,2.121.007,1.332,1.332,0,1,1,1.77,1.99A4.073,4.073,0,0,1,1658.485,438.924Z" transform="translate(-1621.415 -425.27)" fill="#efa00b"/>
      </g>
    </g>
  </g>
</svg>
