<svg xmlns="http://www.w3.org/2000/svg" width="44.924" height="44.91" viewBox="0 0 44.924 44.91">
  <g id="d7mxDz.tif" transform="translate(-88.614 -284.699)">
    <g id="Group_56" data-name="Group 56" transform="translate(88.614 284.699)">
      <g id="Group_55" data-name="Group 55" transform="translate(0 0)">
        <path id="Path_19" data-name="Path 19" d="M112.489,329.609h-2.806c-.127-.026-.253-.057-.381-.076-1.068-.159-2.15-.25-3.2-.483a22.462,22.462,0,1,1,27.1-25.767c.137.819.228,1.645.34,2.468v2.807c-.025.113-.057.225-.074.339-.153,1.039-.249,2.089-.461,3.116A22.457,22.457,0,0,1,115,329.262C114.164,329.4,113.325,329.494,112.489,329.609Zm18.417-22.472a19.82,19.82,0,1,0-19.8,19.841A19.821,19.821,0,0,0,130.906,307.136Z" transform="translate(-88.614 -284.699)" fill="#efa00b"/>
        <path id="Path_20" data-name="Path 20" d="M376.777,380.315q0-6.224,0-12.449c0-1.253.5-1.727,1.745-1.658a7.91,7.91,0,0,1,7.517,7.733c.049,2.834.013,5.669.014,8.5a1.249,1.249,0,0,1-.932,1.322c-.307.091-.226.3-.226.483,0,2.82.006,5.64-.006,8.46a4.049,4.049,0,0,1-8.081.4c-.021-.276-.028-.555-.028-.832Q376.776,386.3,376.777,380.315Zm6.61.877a2.257,2.257,0,0,0,.034-.271c0-2.322.025-4.644-.016-6.965a5.256,5.256,0,0,0-3.476-4.809c-.155-.056-.318-.089-.484-.135v12.18Zm-3.961,2.676c-.008.147-.018.248-.018.349q0,4.184,0,8.369a2.567,2.567,0,0,0,.029.392,1.382,1.382,0,0,0,1.238,1.171,1.416,1.416,0,0,0,1.581-1.511q.007-4.206,0-8.413c0-.113-.013-.226-.022-.357Z" transform="translate(-351.457 -359.04)" fill="#efa00b"/>
        <path id="Path_21" data-name="Path 21" d="M210.95,399.376v-5.1c-.388-.148-.789-.274-1.169-.448a6.405,6.405,0,0,1-3.716-6.565,1.3,1.3,0,0,1,1.2-1.144,1.256,1.256,0,0,1,1.359.991,8.484,8.484,0,0,1,.071,1.133,3.635,3.635,0,0,0,1.863,3.04,4.181,4.181,0,0,0,.391.182c.011-.172.026-.3.026-.419,0-1.184,0-2.368,0-3.552a1.314,1.314,0,1,1,2.624-.009c.014,1.329,0,2.658,0,4.052a2.9,2.9,0,0,0,.381-.131,3.634,3.634,0,0,0,2.1-3.16c.017-.262,0-.526.011-.789a1.315,1.315,0,1,1,2.629.02,6.322,6.322,0,0,1-3.489,6.234c-.418.226-.9.329-1.344.515-.116.049-.273.195-.274.3-.016,1.564-.009,3.128-.006,4.692a.687.687,0,0,0,.056.162c.426,0,.861-.006,1.3,0a1.3,1.3,0,0,1,1.372,1.378c0,3.391.015,6.783,0,10.174a4.044,4.044,0,0,1-8.082.193c-.05-.9-.023-1.812-.024-2.718q0-3.771,0-7.543a1.325,1.325,0,0,1,1.489-1.485C210.109,399.374,210.5,399.376,210.95,399.376Zm-.061,2.654a1.514,1.514,0,0,0-.028.181q0,4.337,0,8.675a1.6,1.6,0,0,0,.141.633,1.4,1.4,0,0,0,1.605.768,1.428,1.428,0,0,0,1.093-1.451q.007-4.228,0-8.456c0-.112-.016-.225-.026-.349Z" transform="translate(-195.707 -377.201)" fill="#efa00b"/>
      </g>
    </g>
  </g>
</svg>
