<svg xmlns="http://www.w3.org/2000/svg" width="38" height="38" viewBox="0 0 38 38">
  <g id="Group_503" data-name="Group 503" transform="translate(-226 -647)">
    <path id="Union_1" data-name="Union 1" d="M2175.36,22.317a.793.793,0,0,1-.3-.948.609.609,0,0,1,.123-.215c.636-.636,1.277-1.267,1.9-1.885l1.112,1.111c-.039.042-.1.11-.158.171-.554.555-1.106,1.114-1.667,1.663a.784.784,0,0,1-1.01.1Zm17.683.136a1.213,1.213,0,0,1-1.2-1.3c0-.358,0-.716,0-1.093h-7.218c0,.393,0,.769,0,1.144a1.2,1.2,0,1,1-2.4,0c0-.375,0-.751,0-1.165-.3,0-.588-.016-.875,0a2.406,2.406,0,0,1-1.984-.816c-1.232-1.271-2.5-2.5-3.748-3.764a2,2,0,1,1,2.813-2.848c.817.8,1.621,1.616,2.43,2.425.064.064.13.125.192.184l6.763-6.764,1.126,1.129-6.363,6.361.034.08h.28q6.24,0,12.478,0a2,2,0,1,1,.157,4c-.415.013-.832,0-1.274,0,0,.387,0,.752,0,1.117a1.212,1.212,0,0,1-1.2,1.291Zm.316-10.809c-.121-.12-.049-.2,0-.307.557-1.247,1.157-2.476,1.653-3.747.387-.988.644-2.028.955-3.031a9.055,9.055,0,0,1,1.389,3.647,9.641,9.641,0,0,1-1.2,6.23C2195.2,13.482,2194.284,12.56,2193.359,11.644Zm-6.26-6.252a25.205,25.205,0,0,1,7.52-2.557,25.176,25.176,0,0,1-2.56,7.536Zm-1.383-1.387c-.817-.835-1.649-1.657-2.475-2.484-.064-.064-.124-.13-.218-.229.311-.156.593-.31.885-.443a9.241,9.241,0,0,1,3.057-.806,1.1,1.1,0,0,0,.165-.043h1.4c.491.084.987.149,1.474.254a9.187,9.187,0,0,1,2.749,1.107c.062.037.12.083.215.149-.381.1-.724.188-1.066.28a26.588,26.588,0,0,0-5.725,2.281.473.473,0,0,1-.216.069A.351.351,0,0,1,2185.717,4.005Z" transform="translate(-1941.227 653.84)" fill="#64697a" stroke="rgba(0,0,0,0)" stroke-width="1"/>
    <g id="Ellipse_11" data-name="Ellipse 11" transform="translate(226 647)" fill="none" stroke="#64697a" stroke-width="1">
      <circle cx="19" cy="19" r="19" stroke="none"/>
      <circle cx="19" cy="19" r="18.5" fill="none"/>
    </g>
  </g>
</svg>
