<svg xmlns="http://www.w3.org/2000/svg" width="38" height="38" viewBox="0 0 38 38">
  <g id="Group_504" data-name="Group 504" transform="translate(-179 -647)">
    <path id="Union_3" data-name="Union 3" d="M2189.86,22.429a9.8,9.8,0,0,1-4.746-3.505,9.581,9.581,0,0,1-1.852-4.7,16.6,16.6,0,0,1-.086-1.664c-.011-1.553,0-3.105,0-4.657V7.642c.433-.073.856-.148,1.28-.215a36.148,36.148,0,0,1,7.312-.391,36.792,36.792,0,0,1,5.118.609v5.8c-.042.356-.072.712-.126,1.065a9.952,9.952,0,0,1-6.567,7.921.511.511,0,0,1-.164.026A.5.5,0,0,1,2189.86,22.429Zm-3.492-5.912a4.785,4.785,0,0,0,7.307-.01l-.979-.83a3.539,3.539,0,0,1-5.341,0Zm4.847-3.92h2.915V11.306h-2.915Zm-5.3-.006h2.92V11.3h-2.92Zm-3.959,2.869a.837.837,0,0,1-.283-.028,9.8,9.8,0,0,1-5.159-4.13,9.406,9.406,0,0,1-1.427-4.085c-.059-.573-.08-1.154-.084-1.731-.012-1.523,0-3.047,0-4.569V.653c.425-.071.84-.147,1.257-.212a34.715,34.715,0,0,1,4.457-.411,1.928,1.928,0,0,0,.215-.03h1.846c.452.028.9.059,1.356.083a37.623,37.623,0,0,1,4.442.543.8.8,0,0,1,.122.04v5c-1.153.107-2.3.184-3.436.327s-2.266.353-3.406.534V8.676a4.85,4.85,0,0,0-3.665,1.7l1,.849a3.494,3.494,0,0,1,2.65-1.219,28.621,28.621,0,0,0,.285,5.458C2182.069,15.459,2182.013,15.459,2181.96,15.459Zm-4.211-10.515h2.914V3.653h-2.914Zm5.289-.005h2.922V3.659h-2.922Z" transform="translate(-1986.941 656)" fill="#64697a" stroke="rgba(0,0,0,0)" stroke-width="1"/>
    <g id="Ellipse_10" data-name="Ellipse 10" transform="translate(179 647)" fill="none" stroke="#64697a" stroke-width="1">
      <circle cx="19" cy="19" r="19" stroke="none"/>
      <circle cx="19" cy="19" r="18.5" fill="none"/>
    </g>
  </g>
</svg>
