<svg xmlns="http://www.w3.org/2000/svg" width="38" height="38" viewBox="0 0 38 38">
  <g id="Group_502" data-name="Group 502" transform="translate(-273 -647)">
    <path id="Union_2" data-name="Union 2" d="M2188.059,22.363a2.047,2.047,0,0,1-1.222-.693,1.882,1.882,0,0,1-.417-1.3q.118-2.955.244-5.911c.059-1.44.116-2.879.182-4.319a.282.282,0,0,0-.173-.3,3.391,3.391,0,0,1-1.88-3.25c.051-2.117.14-4.233.212-6.35,0-.079,0-.159,0-.239h1.179q.117,3.367.233,6.738h.932c.078-2.259.155-4.5.232-6.738h1.4q.117,3.367.233,6.738h.932c.077-2.259.155-4.5.232-6.738h1.18a1.069,1.069,0,0,0-.007.108q.078,2.353.158,4.706c.015.434.044.868.067,1.3v.917a.959.959,0,0,0-.032.123,3.4,3.4,0,0,1-1.857,2.683.281.281,0,0,0-.173.3c.066,1.439.122,2.879.182,4.319q.123,2.955.244,5.911a1.883,1.883,0,0,1-.417,1.3,2.047,2.047,0,0,1-1.222.693Zm-9.084,0a.592.592,0,0,0-.1-.035,1.879,1.879,0,0,1-1.542-1.955c.129-2.937.248-5.874.375-8.811a.253.253,0,0,0-.188-.284,4.068,4.068,0,0,1-2.264-2.409A10.253,10.253,0,0,1,2175,7.862V6.683a1.867,1.867,0,0,0,.041-.21,10.87,10.87,0,0,1,.888-3.688,6.081,6.081,0,0,1,1.226-1.841A3.282,3.282,0,0,1,2178.931,0h.525a3.263,3.263,0,0,1,1.534.725,5.822,5.822,0,0,1,1.484,2.1,11.419,11.419,0,0,1,.911,4.544,4.163,4.163,0,0,1-2.535,3.915.237.237,0,0,0-.17.274c.047.967.087,1.933.128,2.9q.123,2.955.244,5.91a1.884,1.884,0,0,1-.417,1.3,2.041,2.041,0,0,1-1.223.693Z" transform="translate(-1891.772 654.818)" fill="#64697a" stroke="rgba(0,0,0,0)" stroke-width="1"/>
    <g id="Ellipse_12" data-name="Ellipse 12" transform="translate(273 647)" fill="none" stroke="#64697a" stroke-width="1">
      <circle cx="19" cy="19" r="19" stroke="none"/>
      <circle cx="19" cy="19" r="18.5" fill="none"/>
    </g>
  </g>
</svg>
