<svg id="Group_683" data-name="Group 683" xmlns="http://www.w3.org/2000/svg" xmlns:xlink="http://www.w3.org/1999/xlink" width="87.022" height="87.011" viewBox="0 0 87.022 87.011">
  <defs>
    <clipPath id="clip-path">
      <rect id="Rectangle_323" data-name="Rectangle 323" width="87.022" height="87.011"/>
    </clipPath>
  </defs>
  <g id="Group_682" data-name="Group 682" clip-path="url(#clip-path)">
    <path id="Path_273" data-name="Path 273" d="M95.112,44.534H16.572V41.768c.28-.014.562-.039.845-.039,2.426,0,4.853-.026,7.278.014a1.469,1.469,0,0,0,1.418-.738q7.932-11.667,15.916-23.3c.954-1.394,2.206-1.935,3.5-1.353a4.046,4.046,0,0,1,1.555,1.33c2.168,3.082,4.275,6.206,6.4,9.315.176.257.36.509.6.845.272-.416.478-.726.678-1.039q5.55-8.669,11.1-17.343a2.938,2.938,0,0,1,2.715-1.6,3.049,3.049,0,0,1,2.5,1.679q6.741,10.561,13.5,21.107c2.235,3.493,4.476,6.982,6.693,10.487a1.108,1.108,0,0,0,1.122.607c.9-.048,1.812-.013,2.718-.013Zm-6.785-2.822L68.443,10.651,48.562,41.712Zm-59.293-.031c.286.024.419.045.552.045,5.026,0,10.053.012,15.079-.024a1.346,1.346,0,0,0,.921-.581c2.166-3.327,4.285-6.686,6.447-10.016a.982.982,0,0,0-.012-1.3c-2.334-3.357-4.629-6.74-6.939-10.113-.143-.208-.306-.4-.527-.692L29.034,41.681" transform="translate(-8.09 -3.836)"/>
    <path id="Path_274" data-name="Path 274" d="M14.384,0a7.319,7.319,0,0,1,3.872,2.375,6.1,6.1,0,0,0,3.227,1.952,6.3,6.3,0,0,1-1.1,12.5q-7.054.047-14.108,0a6.3,6.3,0,1,1,.205-12.6,1.106,1.106,0,0,0,1.241-.741A6.083,6.083,0,0,1,11.637.228c.217-.067.428-.151.642-.228ZM13.356,14.034H20.2a3.411,3.411,0,0,0,3.41-2.147,3.273,3.273,0,0,0-.662-3.741A3.384,3.384,0,0,0,19.013,7.3c-1.291.487-1.985.052-2.2-1.333A3.445,3.445,0,0,0,14.419,3,3.485,3.485,0,0,0,9.85,5.943c-.224,1.438-.873,1.815-2.26,1.341a4.329,4.329,0,0,0-1.1-.251,3.5,3.5,0,1,0-.234,6.991c2.367.037,4.735.009,7.1.011" transform="translate(0)"/>
    <path id="Path_275" data-name="Path 275" d="M56.652,124.888a2.014,2.014,0,0,0,1.908-.463c2.789-2.448,5.623-4.845,8.443-7.258,1.028-.88,1.6-.86,2.562.092q.935.924,1.86,1.859c.98.986,1.007,1.611.1,2.629-3.179,3.548-6.349,7.1-9.556,10.626a2.574,2.574,0,0,0-.745,1.941c.05,2.366.022,4.734.016,7.1,0,1.3-.488,1.781-1.811,1.783q-6.621.005-13.241,0c-1.31,0-1.786-.484-1.788-1.8-.005-2.455.025-4.91-.025-7.364a2.322,2.322,0,0,0-.512-1.386c-3.191-3.615-6.423-7.193-9.644-10.782-1.047-1.166-1.034-1.712.071-2.819.6-.6,1.2-1.2,1.8-1.8.955-.943,1.522-.959,2.562-.068,2.8,2.394,5.607,4.775,8.376,7.2a2.012,2.012,0,0,0,1.978.5,5.753,5.753,0,0,1-1.756-4.863,5.456,5.456,0,0,1,1.969-3.6,5.616,5.616,0,0,1,7.572.338c2.2,2.2,2.181,5.25-.135,8.139m11.562-5.06c-2.906,2.488-5.685,4.9-8.517,7.257a2.978,2.978,0,0,1-1.717.649q-5.174.09-10.349,0a2.9,2.9,0,0,1-1.646-.607c-1.707-1.373-3.345-2.833-5.011-4.258-1.167-1-2.337-2-3.54-3.022l-.606.7c.178.207.308.363.443.515,3.024,3.373,6.033,6.761,9.086,10.108a3.02,3.02,0,0,1,.859,2.28c-.052,1.9-.015,3.8-.015,5.7v1.173H58.431c0-2.436-.047-4.8.032-7.168a3.059,3.059,0,0,1,.694-1.78c3.042-3.475,6.144-6.9,9.225-10.337.149-.167.276-.355.441-.569l-.61-.643M52.8,117.943a2.8,2.8,0,1,0,2.814,2.771,2.809,2.809,0,0,0-2.814-2.771" transform="translate(-16.326 -56.191)"/>
    <path id="Path_276" data-name="Path 276" d="M112.6,97.751a4.8,4.8,0,0,1,4.127-1.695,4.488,4.488,0,0,1,3.94,3.041,4.974,4.974,0,0,1-1.062,5.372c-.991,1.113-2.038,2.175-3.06,3.261-.921.979-1.829,1.971-2.767,2.933a1.418,1.418,0,0,1-2.345-.014c-1.973-2.076-3.951-4.149-5.881-6.264a4.962,4.962,0,0,1-.821-5.7,4.534,4.534,0,0,1,4.45-2.688,4.729,4.729,0,0,1,3.419,1.757m.018,10.073c1.762-1.893,3.507-3.689,5.153-5.572a2.17,2.17,0,0,0-.3-3.007c-.843-.71-1.84-.564-2.778.408-2.033,2.106-2.14,2.106-4.156,0-.947-.99-1.914-1.136-2.764-.419a2.173,2.173,0,0,0-.272,3.074c1.637,1.854,3.362,3.631,5.12,5.515" transform="translate(-50.856 -46.86)"/>
    <rect id="Rectangle_322" data-name="Rectangle 322" width="2.689" height="4.132" transform="translate(35.154 50.555)"/>
    <path id="Path_277" data-name="Path 277" d="M56.885,107.027l-2.519-3.366,2.241-1.682,2.522,3.364-2.244,1.684" transform="translate(-26.54 -49.783)"/>
    <path id="Path_278" data-name="Path 278" d="M83.76,103.684l-2.518,3.356-2.253-1.663,2.519-3.37,2.252,1.678" transform="translate(-38.561 -49.796)"/>
  </g>
</svg>
