<svg xmlns="http://www.w3.org/2000/svg" width="58" height="45" viewBox="0 0 58 45">
  <g id="Group_558" data-name="Group 558" transform="translate(0.053)">
    <path id="Icon_payment-maestro-alt" data-name="Icon payment-maestro-alt" d="M44.9,29.189q-1.457,0-1.454,1.983,0,1.322.926,1.322c.7,0,1.189-.483,1.454-1.454v-.661c0-.793-.31-1.19-.925-1.19ZM27.72,29.85a.7.7,0,0,0-.793-.793,1.18,1.18,0,0,0-1.19,1.057H27.72V29.85ZM19.656,32.1c0,.353.219.529.661.529.793,0,1.19-.483,1.19-1.454h-.4c-.971,0-1.454.31-1.454.925Zm30.025-8.856a15.959,15.959,0,0,0-5.053-5.053,14.753,14.753,0,0,0-7.005-1.838,13.254,13.254,0,0,0-8.384,2.871A13.964,13.964,0,0,1,33.6,26.456H32.339a13.229,13.229,0,0,0-4.019-6.546A13.214,13.214,0,0,0,24.3,26.456H23.036A13.955,13.955,0,0,1,27.4,19.221a13.263,13.263,0,0,0-8.384-2.871,14.745,14.745,0,0,0-7.005,1.838,15.936,15.936,0,0,0-5.053,5.053,14.272,14.272,0,0,0,0,14.011A15.92,15.92,0,0,0,12.011,42.3a14.727,14.727,0,0,0,7.005,1.838A13.255,13.255,0,0,0,27.4,41.272a14.475,14.475,0,0,1-4.25-6.661h1.263a13.977,13.977,0,0,0,3.9,5.972,14,14,0,0,0,3.9-5.972h1.263a14.509,14.509,0,0,1-4.25,6.661,13.244,13.244,0,0,0,8.384,2.871A14.732,14.732,0,0,0,44.628,42.3a15.942,15.942,0,0,0,5.053-5.053,14.272,14.272,0,0,0,0-14.011ZM15.294,33.815l1.057-5.552L13.84,33.815H12.253l-.265-5.552-1.057,5.552H9.345l1.322-7.27h2.776l.132,4.494,1.983-4.494h2.908l-1.454,7.27H15.294Zm8.063-3.173-.4,2.115v.4l-.132.265v.4H21.374v-.661a2.061,2.061,0,0,1-1.85.793q-1.586,0-1.586-1.719,0-2.246,3.041-2.247a1.873,1.873,0,0,1,.793.132v-.4c0-.351-.353-.529-1.057-.529a4.539,4.539,0,0,0-1.454.132H19l-.132.132L19,28.132a7.79,7.79,0,0,1,2.115-.4q2.38,0,2.38,1.719a6.28,6.28,0,0,1-.133,1.188Zm3.7,1.983a4.094,4.094,0,0,0,1.85-.4l-.265,1.454a7.359,7.359,0,0,1-1.719.265q-3.043,0-3.041-2.644,0-3.569,3.041-3.569,2.38,0,2.38,2.115a6.34,6.34,0,0,1-.132,1.454H25.6v.265c0,.705.484,1.057,1.455,1.057Zm6.874-3.437H32.611q-.793,0-.793.4t.793.661a1.781,1.781,0,0,1,1.19,1.719q0,1.983-2.776,1.983h-.4a1.2,1.2,0,0,0-.529-.132H29.57l-.265-.132h-.132l.265-1.322a12.763,12.763,0,0,0,1.586.265q1.056,0,1.057-.529c0-.265-.265-.483-.793-.661q-1.457-.66-1.454-1.719,0-1.983,2.776-1.983c.087,0,.33.022.727.066a8.33,8.33,0,0,0,.859.066l-.264,1.322Zm3.041,4.494a7.817,7.817,0,0,1-1.322.265,1.168,1.168,0,0,1-1.322-1.322V32.1l.132-.529V31.04l.926-4.494h1.719l-.265,1.322h.926L37.5,29.322h-.925l-.4,2.511a.383.383,0,0,0-.132.265c0,.265.219.4.661.4a.761.761,0,0,0,.529-.132l-.265,1.321Zm2.379.132H37.5l1.057-5.948h1.719l-.265.925a2.183,2.183,0,0,1,1.586-.925H42l.132.132-.661,1.586h-.4q-.926,0-1.719,4.23Zm8.328-2.644q-.4,2.776-3.437,2.776-2.909,0-2.908-2.776a3.323,3.323,0,0,1,.992-2.445,3.487,3.487,0,0,1,2.578-.992q2.776,0,2.776,2.644v.793Z" transform="translate(0.803 -7.979)" fill="rgba(0,0,0,0.7)"/>
    <g id="Rectangle_243" data-name="Rectangle 243" transform="translate(-0.053)" fill="none" stroke="rgba(0,0,0,0.7)" stroke-width="1">
      <rect width="58" height="45" rx="3" stroke="none"/>
      <rect x="0.5" y="0.5" width="57" height="44" rx="2.5" fill="none"/>
    </g>
  </g>
</svg>
