<svg xmlns="http://www.w3.org/2000/svg" width="66.799" height="44.533" viewBox="0 0 66.799 44.533">
  <path id="Icon_metro-mastercard" data-name="Icon metro-mastercard" d="M22.025,33.628h-.377q-1.363,0-1.363.928,0,.638.58.638a.969.969,0,0,0,.812-.435A2.013,2.013,0,0,0,22.025,33.628Zm11.452-1.044h1.8V32.5a.445.445,0,0,0,.015-.188q-.014-.072-.029-.2a.815.815,0,0,0-.058-.232.6.6,0,0,0-.13-.188.712.712,0,0,0-.217-.145.826.826,0,0,0-.333-.058q-.812,0-1.044,1.1Zm15.656,1.044h-.348q-1.392,0-1.392.928,0,.638.58.638a.969.969,0,0,0,.812-.435A2.013,2.013,0,0,0,49.133,33.628Zm9.249-.754q0-1.189-.87-1.189a1.029,1.029,0,0,0-.9.58,2.838,2.838,0,0,0-.348,1.479q0,1.218.812,1.218a1.08,1.08,0,0,0,.942-.58A2.809,2.809,0,0,0,58.381,32.874ZM16.487,28.786h2.522l-1.276,7.6H16.11l.928-5.828L14.98,36.382H13.849l-.116-5.8-.986,5.8H11.21l1.276-7.6h2.348l.058,4.726Zm7.335,3.1q0,.174-.116,1.218-.464,2.928-.493,3.276H21.851l.029-.638A1.993,1.993,0,0,1,20.2,36.5a1.4,1.4,0,0,1-1.087-.464,1.744,1.744,0,0,1-.42-1.218,2.149,2.149,0,0,1,.754-1.754,3.232,3.232,0,0,1,2.116-.623,6.252,6.252,0,0,1,.667.029.814.814,0,0,1,.015-.159q.015-.073.029-.13a.4.4,0,0,0,.015-.087q0-.58-1.044-.58a5.389,5.389,0,0,0-1.711.29q0-.116.2-1.392a7.1,7.1,0,0,1,1.943-.319q2.145,0,2.145,1.8Zm4.523-1.682-.232,1.421a8.832,8.832,0,0,0-1.189-.087q-.783,0-.783.493a.441.441,0,0,0,.13.348,2.621,2.621,0,0,0,.623.319,1.821,1.821,0,0,1,1.16,1.74q0,2.087-2.522,2.058a7.023,7.023,0,0,1-1.682-.174q0-.058.2-1.421a5.656,5.656,0,0,0,1.479.232q.928,0,.928-.551a.451.451,0,0,0-.13-.333,2.591,2.591,0,0,0-.623-.362,1.842,1.842,0,0,1-1.247-1.711q0-2.087,2.435-2.087A7.568,7.568,0,0,1,28.345,30.207Zm2.551,0h.812l-.2,1.508h-.841q-.058.493-.188,1.174t-.2,1.116a5.144,5.144,0,0,0-.073.522q0,.464.551.464a1.906,1.906,0,0,0,.464-.058L30.983,36.3a3.667,3.667,0,0,1-1.16.2q-1.247,0-1.3-1.363a12.533,12.533,0,0,1,.232-1.624q.087-.58.725-4.233H31.07Zm5.886,2.116a6.5,6.5,0,0,1-.2,1.508H33.361a.993.993,0,0,0,.29.957,1.664,1.664,0,0,0,1.1.319,3.716,3.716,0,0,0,1.682-.406l-.261,1.566a6.419,6.419,0,0,1-1.653.232,2.434,2.434,0,0,1-2.754-2.754,4.159,4.159,0,0,1,.8-2.624,2.448,2.448,0,0,1,2.015-1.029,2.145,2.145,0,0,1,1.609.609,2.224,2.224,0,0,1,.594,1.624Zm4.03-2.145a6.836,6.836,0,0,0-.638,1.8q-.638-.058-.9.7a29.346,29.346,0,0,0-.725,3.711H36.927l.087-.406q.638-3.769.841-5.77h1.479l-.087.957a3.461,3.461,0,0,1,.739-.855.959.959,0,0,1,.826-.13Zm5.422-1.189-.261,1.653a3.31,3.31,0,0,0-1.45-.406,1.759,1.759,0,0,0-1.479.8,3.389,3.389,0,0,0-.58,2.044,2.137,2.137,0,0,0,.391,1.363,1.342,1.342,0,0,0,1.116.493,3.278,3.278,0,0,0,1.392-.377l-.29,1.711a5.346,5.346,0,0,1-1.45.232,2.606,2.606,0,0,1-2.073-.884,3.521,3.521,0,0,1-.768-2.392,5.159,5.159,0,0,1,1.029-3.32,3.241,3.241,0,0,1,2.653-1.29,5.2,5.2,0,0,1,1.769.377Zm4.7,2.9a7.528,7.528,0,0,1-.116,1.218q-.377,2.29-.493,3.276H48.988l.029-.638a2.025,2.025,0,0,1-1.711.754,1.356,1.356,0,0,1-1.073-.464,1.782,1.782,0,0,1-.406-1.218,2.168,2.168,0,0,1,.739-1.754,3.172,3.172,0,0,1,2.1-.623,5.77,5.77,0,0,1,.667.029,1.377,1.377,0,0,0,.058-.377q0-.58-1.044-.58a5.389,5.389,0,0,0-1.711.29q0-.116.232-1.392a7.1,7.1,0,0,1,1.943-.319q2.116,0,2.116,1.8Zm4.088-1.711a5.587,5.587,0,0,0-.609,1.8.835.835,0,0,0-.913.667,32.685,32.685,0,0,0-.739,3.74H51.133l.087-.406q.551-3.015.841-5.77h1.508a5.882,5.882,0,0,1-.116.957,3.9,3.9,0,0,1,.768-.855.908.908,0,0,1,.8-.13Zm4.088-1.392H60.73l-1.247,7.6H57.947l.087-.551a2.081,2.081,0,0,1-1.508.667,1.72,1.72,0,0,1-1.435-.7,2.96,2.96,0,0,1-.536-1.856,4.509,4.509,0,0,1,.8-2.667,2.278,2.278,0,0,1,1.87-1.131,1.882,1.882,0,0,1,1.537.841Zm3.218,3.769A15.772,15.772,0,0,0,37.043,19.973,16.623,16.623,0,0,1,42,28.207h-1.45a15.611,15.611,0,0,0-4.581-7.335,15.611,15.611,0,0,0-4.581,7.335H29.94A16.623,16.623,0,0,1,34.9,19.973,15.835,15.835,0,0,0,17.458,18.9a15.784,15.784,0,0,0,0,27.311A15.835,15.835,0,0,0,34.9,45.138a16.675,16.675,0,0,1-4.784-7.654h1.45a15.48,15.48,0,0,0,4.407,6.755,15.48,15.48,0,0,0,4.407-6.755h1.45a16.674,16.674,0,0,1-4.784,7.654A15.745,15.745,0,0,0,62.324,32.555ZM69.37,14V51.111a3.763,3.763,0,0,1-3.711,3.711H6.282a3.567,3.567,0,0,1-2.609-1.1,3.566,3.566,0,0,1-1.1-2.609V14a3.567,3.567,0,0,1,1.1-2.609,3.566,3.566,0,0,1,2.609-1.1H65.659A3.763,3.763,0,0,1,69.37,14Z" transform="translate(-2.571 -10.289)" fill="rgba(0,0,0,0.7)"/>
</svg>
