<svg xmlns="http://www.w3.org/2000/svg" width="22.694" height="14.589" viewBox="0 0 22.694 14.589">
  <path id="Icon_ionic-md-people" data-name="Icon ionic-md-people" d="M17.723,13.954a3.04,3.04,0,1,0-3.095-3.039A3.076,3.076,0,0,0,17.723,13.954Zm-8.252,0a3.04,3.04,0,1,0-3.095-3.039A3.076,3.076,0,0,0,9.471,13.954Zm0,2.229c-2.424,0-7.221,1.165-7.221,3.546v2.735H16.839V19.728C16.839,17.347,11.895,16.182,9.471,16.182Zm8.252.557a5.5,5.5,0,0,0-.884.051,3.02,3.02,0,0,1,1.621,2.938v2.735h6.484V19.728C24.944,17.347,20.147,16.74,17.723,16.74Z" transform="translate(-2.25 -7.875)" fill="#64697a"/>
</svg>
