<svg xmlns="http://www.w3.org/2000/svg" width="7.198" height="15.424" viewBox="0 0 7.198 15.424">
  <path id="Icon_metro-section" data-name="Icon metro-section" d="M14.154,17.352a2.775,2.775,0,0,1-1.869-.645,1.941,1.941,0,0,1-.754-1.5.945.945,0,0,1,.3-.7,1.015,1.015,0,0,1,.721-.3,1,1,0,0,1,.705.279.943.943,0,0,1,.283.71,2.142,2.142,0,0,1-.083.56,1.454,1.454,0,0,0-.066.351.216.216,0,0,0,.117.192,1.2,1.2,0,0,0,.706.2,1.382,1.382,0,0,0,.927-.362,1,1,0,0,0,.416-.754,1.322,1.322,0,0,0-.243-.787,6.239,6.239,0,0,0-1.546-1.351,9.456,9.456,0,0,1-2.449-2.132A2.713,2.713,0,0,1,10.8,9.54a2.946,2.946,0,0,1,.544-1.651A4.29,4.29,0,0,1,12.7,6.651a4.53,4.53,0,0,1-.709-.959A2.471,2.471,0,0,1,11.7,4.545a2.417,2.417,0,0,1,.847-1.851,3.005,3.005,0,0,1,2.083-.766,2.839,2.839,0,0,1,1.886.63,1.892,1.892,0,0,1,.756,1.469,1.051,1.051,0,0,1-.313.748l0,0a.967.967,0,0,1-.709.262,1.043,1.043,0,0,1-.731-.273.843.843,0,0,1-.285-.632,2.426,2.426,0,0,1,.081-.5,1.311,1.311,0,0,0,.04-.305.459.459,0,0,0-.177-.376.822.822,0,0,0-.544-.155,1.336,1.336,0,0,0-.94.348A1.1,1.1,0,0,0,13.3,4a1.255,1.255,0,0,0,.2.744A5,5,0,0,0,14.837,5.9a9.937,9.937,0,0,1,2.629,2.242,2.708,2.708,0,0,1,.529,1.578,3.029,3.029,0,0,1-.532,1.652,4.185,4.185,0,0,1-1.369,1.261,4.463,4.463,0,0,1,.716.942,2.387,2.387,0,0,1,.274,1.123,2.449,2.449,0,0,1-.847,1.889,3.016,3.016,0,0,1-2.083.762ZM13.408,7.3a1.817,1.817,0,0,0-1.08,1.526,1.591,1.591,0,0,0,.3.938,7.282,7.282,0,0,0,1.759,1.526c.367.25.7.493.988.724a1.83,1.83,0,0,0,1.1-1.509,1.772,1.772,0,0,0-.365-.993A6.927,6.927,0,0,0,14.5,8.093C14.068,7.8,13.7,7.531,13.408,7.3Z" transform="translate(-10.797 -1.928)" fill="#64697a"/>
</svg>
