<svg xmlns="http://www.w3.org/2000/svg" width="56.501" height="43.945" viewBox="0 0 56.501 43.945">
  <path id="Icon_awesome-cc-paypal" data-name="Icon awesome-cc-paypal" d="M18.274,24.438a2.1,2.1,0,0,1-2.158,2.109,1.417,1.417,0,0,1-1.569-1.471,2.127,2.127,0,0,1,2.129-2.158A1.473,1.473,0,0,1,18.274,24.438ZM7.9,19.681H7.435a.307.307,0,0,0-.314.265L6.7,22.565l.8-.029c1.079,0,1.913-.147,2.109-1.393C9.839,19.828,9,19.681,7.9,19.681Zm27.858,0h-.441a.289.289,0,0,0-.314.265l-.412,2.619.785-.029c1.275,0,2.158-.294,2.158-1.766-.01-1.04-.942-1.089-1.775-1.089ZM56.5,6.958V41.486a4.71,4.71,0,0,1-4.708,4.708H4.708A4.71,4.71,0,0,1,0,41.486V6.958A4.71,4.71,0,0,1,4.708,2.25H51.792A4.71,4.71,0,0,1,56.5,6.958ZM12.585,20.24c0-2.06-1.589-2.747-3.4-2.747H5.258a.518.518,0,0,0-.51.461L3.139,27.97a.338.338,0,0,0,.314.392H5.317a.626.626,0,0,0,.54-.559L6.3,25.194c.1-.706,1.295-.461,1.766-.461a4.148,4.148,0,0,0,4.522-4.493Zm8.259.863H18.981c-.373,0-.392.539-.412.8a2.5,2.5,0,0,0-2.325-.981,4.377,4.377,0,0,0-4.238,4.434,2.928,2.928,0,0,0,3.109,3.159,3.82,3.82,0,0,0,2.6-1.167,2.621,2.621,0,0,0-.1.608c0,.226.1.392.314.392h1.687c.265,0,.49-.284.54-.559l1-6.307A.334.334,0,0,0,20.844,21.1Zm3.973,9.6,6.248-9.083a.2.2,0,0,0,.049-.167.35.35,0,0,0-.314-.343H28.917a.555.555,0,0,0-.441.245l-2.6,3.826L24.8,21.505a.6.6,0,0,0-.54-.392H22.424a.35.35,0,0,0-.314.343c0,.118,1.913,5.572,2.08,6.091a25.341,25.341,0,0,0-2.011,3.1.316.316,0,0,0,.314.314h1.883a.577.577,0,0,0,.441-.255ZM40.443,20.24c0-2.06-1.589-2.747-3.4-2.747H33.145a.54.54,0,0,0-.54.461L31.016,27.96a.35.35,0,0,0,.314.392h2.011a.42.42,0,0,0,.392-.314l.441-2.845c.1-.706,1.295-.461,1.766-.461A4.143,4.143,0,0,0,40.443,20.24ZM48.7,21.1H46.839c-.373,0-.392.54-.422.8a2.46,2.46,0,0,0-2.325-.981,4.377,4.377,0,0,0-4.238,4.434,2.928,2.928,0,0,0,3.109,3.159,3.708,3.708,0,0,0,2.6-1.167,4.359,4.359,0,0,0-.1.608c0,.226.1.392.314.392h1.7c.265,0,.49-.284.54-.559l1-6.307A.334.334,0,0,0,48.7,21.1Zm4.659-3.266a.33.33,0,0,0-.314-.343H51.233a.325.325,0,0,0-.314.265L49.33,27.96l-.029.049a.347.347,0,0,0,.343.343h1.619a.608.608,0,0,0,.51-.559l1.589-9.927v-.029Zm-8.828,5.081A2.121,2.121,0,0,0,42.4,25.076a1.438,1.438,0,0,0,1.589,1.471,2.092,2.092,0,0,0,2.129-2.109,1.46,1.46,0,0,0-1.589-1.52Z" transform="translate(0 -2.25)" fill="rgba(0,0,0,0.7)"/>
</svg>
