<svg id="Group_659" data-name="Group 659" xmlns="http://www.w3.org/2000/svg" xmlns:xlink="http://www.w3.org/1999/xlink" width="26.866" height="18.872" viewBox="0 0 26.866 18.872">
  <defs>
    <clipPath id="clip-path">
      <rect id="Rectangle_309" data-name="Rectangle 309" width="26.866" height="18.872" fill="#64697a"/>
    </clipPath>
  </defs>
  <g id="Group_658" data-name="Group 658" clip-path="url(#clip-path)">
    <path id="Path_253" data-name="Path 253" d="M20.357,0c.481.077.966.135,1.442.234a8.674,8.674,0,0,1,3.5,1.7c.374.287.736.59,1.1.895a1.053,1.053,0,0,1,.217,1.545,1.074,1.074,0,0,1-1.564.066C24.42,3.944,23.8,3.426,23.124,3a6.764,6.764,0,0,0-4.13-.883,7.28,7.28,0,0,0-4.347,1.924c-.678.577-1.365,1.146-2.077,1.679A8.785,8.785,0,0,1,7.117,7.4,9.3,9.3,0,0,1,.843,4.9,2.414,2.414,0,0,1,0,3.932V3.512a1.094,1.094,0,0,1,1.916-.458c.248.244.534.45.806.67A6.92,6.92,0,0,0,7.2,5.306a6.685,6.685,0,0,0,4.194-1.318c.861-.657,1.676-1.373,2.529-2.04A8.549,8.549,0,0,1,17.446.235c.476-.1.961-.158,1.442-.235Z" fill="#64697a"/>
    <path id="Path_254" data-name="Path 254" d="M0,132.674a1.206,1.206,0,0,1,.656-.735,1.111,1.111,0,0,1,1.146.222A23.927,23.927,0,0,0,3.729,133.6a6.775,6.775,0,0,0,4.156.886,7.271,7.271,0,0,0,4.324-1.917c.685-.583,1.378-1.159,2.1-1.7a8.783,8.783,0,0,1,5.406-1.671A9.287,9.287,0,0,1,26,131.685c.184.161.379.311.551.484a1.039,1.039,0,0,1-1.345,1.576c-.364-.27-.7-.577-1.057-.859a7.171,7.171,0,0,0-7.019-1.171,6.594,6.594,0,0,0-2.094,1.221c-.9.72-1.771,1.482-2.707,2.15a8.706,8.706,0,0,1-5.818,1.492,8.518,8.518,0,0,1-3.3-.86,12.8,12.8,0,0,1-2.884-2.073A2.211,2.211,0,0,1,0,133.093v-.419" transform="translate(0 -117.733)" fill="#64697a"/>
    <path id="Path_255" data-name="Path 255" d="M0,68.123a2.861,2.861,0,0,1,.34-.545,1.032,1.032,0,0,1,1.445,0c.434.352.852.728,1.311,1.045a7,7,0,0,0,7.277.6A11.06,11.06,0,0,0,12.31,67.9c.875-.651,1.7-1.37,2.6-1.986a7.553,7.553,0,0,1,3.635-1.227,9.276,9.276,0,0,1,5.128.84,12.968,12.968,0,0,1,2.846,2.038,1.042,1.042,0,0,1-1.344,1.591c-.459-.349-.886-.74-1.351-1.078a7.122,7.122,0,0,0-6.7-.933,8.156,8.156,0,0,0-2.564,1.6c-.855.69-1.709,1.389-2.614,2.01a7.532,7.532,0,0,1-3.636,1.224,9.271,9.271,0,0,1-5.1-.834A12.769,12.769,0,0,1,.339,69.089,2.344,2.344,0,0,1,0,68.543v-.419" transform="translate(0 -58.897)" fill="#64697a"/>
  </g>
</svg>
