<svg xmlns="http://www.w3.org/2000/svg" width="40.633" height="46.231" viewBox="0 0 40.633 46.231">
  <g id="gOCUxd.tif" transform="translate(-1366 -284)">
    <g id="Group_60" data-name="Group 60" transform="translate(1366 284)">
      <g id="Group_59" data-name="Group 59" transform="translate(0)">
        <path id="Path_27" data-name="Path 27" d="M1378.641,284h1.806c.333.076.667.146,1,.227a8.131,8.131,0,0,1,6.224,7.873c.007.9,0,1.8,0,2.741h5.432v11.009h13.53v24.38H1366v-35.4h5.419c0-.985-.009-1.914,0-2.842a8.07,8.07,0,0,1,5.033-7.364A22.136,22.136,0,0,1,1378.641,284Zm25.262,24.591H1379.58V327.5H1403.9Zm-35.161-11.027V327.5h8.1V305.833h13.512v-8.268Zm16.218-2.748c0-.951.01-1.865,0-2.78a5.416,5.416,0,0,0-10.287-2.281c-.8,1.627-.465,3.349-.552,5.061Z" transform="translate(-1366 -284)" fill="#efa00b"/>
        <path id="Path_28" data-name="Path 28" d="M1575.776,586.1h2.666c0,.466-.007.926,0,1.385a4.06,4.06,0,0,0,8.116.137c.018-.493,0-.987,0-1.506h2.643a6.947,6.947,0,0,1-2.556,6.675,6.724,6.724,0,0,1-7.5.529A7.039,7.039,0,0,1,1575.776,586.1Z" transform="translate(-1556.769 -558.826)" fill="#efa00b"/>
      </g>
    </g>
  </g>
</svg>
