<svg id="Group_680" data-name="Group 680" xmlns="http://www.w3.org/2000/svg" xmlns:xlink="http://www.w3.org/1999/xlink" width="74.722" height="75.001" viewBox="0 0 74.722 75.001">
  <defs>
    <clipPath id="clip-path">
      <rect id="Rectangle_320" data-name="Rectangle 320" width="74.722" height="75.001" fill="none"/>
    </clipPath>
  </defs>
  <g id="Group_679" data-name="Group 679" clip-path="url(#clip-path)">
    <path id="Path_270" data-name="Path 270" d="M0,1.054A1.709,1.709,0,0,1,1.8.008C4.258.02,6.715,0,9.173,0A3.53,3.53,0,0,1,11.34.7a17.879,17.879,0,0,1,7.344,11.248A10.812,10.812,0,0,0,24,19.424c1.687,1.018,3.518,1.8,5.286,2.679.179.089.372.149.556.229,3.707,1.63,4.4,5.111,1.571,8.053-1.119,1.163-1.536,1.122.243,2.413.467.339.936.674,1.4,1.021a2.155,2.155,0,0,1,.822,2.6c-.238.705-.58,1.375-.887,2.085a2.519,2.519,0,0,1,1.958,2.8,33.932,33.932,0,0,1-.879,3.6c.042.027.184.125.331.218a6.4,6.4,0,0,1-.1,10.876,19.953,19.953,0,0,1-6.811,2.264c-2.362.443-4.754.725-7.125,1.127a2.524,2.524,0,0,0-1.234.6,19.741,19.741,0,0,0-6.017,11.906,13.709,13.709,0,0,0-.162,1.418,1.894,1.894,0,0,1-.9,1.7H5.422c-1.236-.042-2.473-.132-3.709-.111A1.545,1.545,0,0,1,0,73.8ZM2.538,2.506V3.543q0,25.409-.031,50.819a2.3,2.3,0,0,0,1.41,2.294,8.391,8.391,0,0,0,4,.868,92.689,92.689,0,0,0,16.561-1.25,73.5,73.5,0,0,0,7.551-1.943,4.547,4.547,0,0,0,1.986-1.4,3.87,3.87,0,0,0-1-5.751c-1.667-1.024-1.988-2.065-1.188-3.863a6.321,6.321,0,0,0,.317-.681c.158-.513.283-1.037.474-1.749a16.059,16.059,0,0,0-1.936.186c-.694.154-1.316.189-1.723-.5s-.056-1.2.4-1.741c.794-.946,1.507-1.96,2.265-2.96-.965-.741-1.806-1.3-2.54-1.97a3.047,3.047,0,0,1,.014-4.745,4.884,4.884,0,0,0,.817-.877c1.114-1.768.894-2.845-.943-3.64A51.711,51.711,0,0,1,22.6,21.456a13.1,13.1,0,0,1-6.362-9.066,15.3,15.3,0,0,0-6.157-9.5,1.439,1.439,0,0,0-.719-.363c-2.251-.028-4.5-.016-6.822-.016M15.789,59.833c-4.5-.176-8.963,1.116-13.193-1.029V72.413h7.913a23.313,23.313,0,0,1,5.28-12.58" transform="translate(0 0)"/>
    <path id="Path_271" data-name="Path 271" d="M109.088,45.1c1.126-.505,2.173-.983,3.227-1.445a2.389,2.389,0,0,1,3.4,1.054c4,6.4,8.049,12.771,11.957,19.228,2.746,4.537,2.351,9.1-.52,13.461a10.136,10.136,0,0,0-1.842,7.253,17.105,17.105,0,0,0,.913,3.16c.3.847.754,1.639,1.09,2.475a1.205,1.205,0,0,1-1.066,1.791c-2.081.054-4.165.033-6.248.011-.7-.007-1.011-.529-1.281-1.107a10.249,10.249,0,0,0-8.433-6.1,13.341,13.341,0,0,1-3.252-.867,11.652,11.652,0,0,1-7.08-7.782Q96.788,65.5,93.629,54.752c-.509-1.732-.065-2.684,1.6-3.433,1.918-.865,3.836-1.733,5.766-2.571.434-.189.609-.391.507-.889a12.872,12.872,0,0,0-2.327-5.569,8.769,8.769,0,0,0-2.319-1.965,2.674,2.674,0,0,0-3.244.071,3.129,3.129,0,0,0-.918,3.3,2.539,2.539,0,0,0,1.367,2.042,1.312,1.312,0,0,0,1.132-.092c.418-.354.077-.76-.24-1.079-.74-.745-.827-1.376-.279-1.957.5-.529,1.214-.492,1.946.1a3.24,3.24,0,0,1,.924,3.994,3.124,3.124,0,0,1-3.677,1.617,4.833,4.833,0,0,1-3.6-4.277,7.378,7.378,0,0,1,.184-3.182c.793-2.774,3.6-4.094,6.513-3.181a8.075,8.075,0,0,1,4.237,3.1,16.4,16.4,0,0,1,2.737,6.634l2.775-1.237c-.664-1.5-1.379-2.938-1.941-4.431a13.171,13.171,0,0,1-.713-8.036,7.218,7.218,0,0,1,2.447-3.88,4.864,4.864,0,0,1,5.69-.424,6.424,6.424,0,0,1,2.868,6.553A3.682,3.682,0,0,1,111.693,39a3.211,3.211,0,0,1-3.018-4.46,1.239,1.239,0,1,1,2.375.7c-.023.123-.1.265-.062.365.109.3.205.747.414.817a1.055,1.055,0,0,0,.873-.323,1.955,1.955,0,0,0,.3-2.064,6.5,6.5,0,0,0-1.325-2.21,2.34,2.34,0,0,0-3.438.124,5.588,5.588,0,0,0-1.616,4.089c-.032,3.3,1.24,6.194,2.889,9.064m15.179,44.49c-.169-.4-.282-.671-.4-.942a12.64,12.64,0,0,1-1.126-4.952,13.228,13.228,0,0,1,2.406-7.769,9.42,9.42,0,0,0,.838-9.908,42.747,42.747,0,0,0-2.622-4.3c-.116-.18-.487-.247-.749-.274-1.188-.122-2.381-.2-3.57-.313a13.913,13.913,0,0,0-2.229-.231,6.181,6.181,0,0,0-5.334,3.72,8.488,8.488,0,0,1-9.783,4.645c-.393-.085-.794-.137-1.272-.218.629,2.129,1.233,4.117,1.8,6.115a9.555,9.555,0,0,0,8.456,7.28,12.88,12.88,0,0,1,9.943,6.722.88.88,0,0,0,.6.405c.975.043,1.953.019,3.039.019m-13.9-42.329c1.168,1.438,2.248,2.78,3.342,4.112a9.734,9.734,0,0,1,1.944,3.78c.26,1-.044,1.694-.811,1.876s-1.274-.262-1.6-1.206a7.986,7.986,0,0,0-.976-2.178c-1.339-1.809-2.781-3.541-4.22-5.35-.994.445-2.006.936-3.048,1.349a.934.934,0,0,0-.656,1.061c0,2.378-.028,4.758-.136,7.133-.077,1.7-.409,3.39.235,5.058.341.884.074,1.556-.632,1.817-.742.275-1.368-.1-1.712-1.009a12.289,12.289,0,0,1-.408-5.64c.213-2.285.267-4.586.4-7.095l-6.182,2.773c1.125,3.811,2.251,7.526,3.3,11.262.269.958.574,1.644,1.731,1.575a4.279,4.279,0,0,1,1.171.252,6.05,6.05,0,0,0,7.077-3.224,8.864,8.864,0,0,1,10.66-4.836,14.264,14.264,0,0,0,1.881.285l-8.232-13.2-3.132,1.406" transform="translate(-54.81 -17.435)"/>
    <path id="Path_272" data-name="Path 272" d="M132.721,149.478a7.738,7.738,0,0,1-6.736-5.569,1.251,1.251,0,0,1,.8-1.569,1.2,1.2,0,0,1,1.577.872,5.288,5.288,0,0,0,4.557,3.811,1.254,1.254,0,0,1,1.151,1.33,1.241,1.241,0,0,1-1.349,1.124" transform="translate(-76.559 -86.485)"/>
  </g>
</svg>
