<svg id="Group_600" data-name="Group 600" xmlns="http://www.w3.org/2000/svg" xmlns:xlink="http://www.w3.org/1999/xlink" width="36.8" height="20.38" viewBox="0 0 36.8 20.38">
  <defs>
    <clipPath id="clip-path">
      <rect id="Rectangle_271" data-name="Rectangle 271" width="36.8" height="20.38" fill="#64697a"/>
    </clipPath>
  </defs>
  <g id="Group_599" data-name="Group 599" clip-path="url(#clip-path)">
    <path id="Path_218" data-name="Path 218" d="M.125,17.814C.078,17.063,0,16.391,0,15.719c0-3.554.86-6.631,4.165-8.682,2.624-1.628,5.068-3.544,7.6-5.319A9.419,9.419,0,0,1,17.148.026C21.467-.026,25.786.016,30.106.01c.706,0,1.268.087,1.353.985a1.883,1.883,0,0,0,.522.925,15.507,15.507,0,0,1,3.631,10.04c.021.595.047,1.159.805,1.327a.611.611,0,0,1,.382.445,26.228,26.228,0,0,1-.44,3.6c-.075.331-.767.522-1.448.946,0-.848,0-1.3,0-1.751a5.589,5.589,0,0,0-5.425-5.824,5.494,5.494,0,0,0-5.456,5.746c.006,2.1.006,2.1-2.084,2.111-2.7.012-5.4,0-8.1.033-.9.012-1.276-.166-1.15-1.228.391-3.29-1.2-5.716-4.074-6.461a5.4,5.4,0,0,0-6.667,4.715c-.022.251-.022.5-.023.755-.007,1.557-.179,1.7-1.809,1.435m9.746-12.2a7.251,7.251,0,0,1,1.4.356c.273.135.659.486.634.7-.1.867.407.858.99.841,4.06-.118,8.119-.241,12.18-.342.84-.021,1.241-.454,1.1-1.221C25.95,4.722,25.62,3.513,25.3,2.3a1.467,1.467,0,0,0-1.686-1.156c-2.37.084-4.742.123-7.113.156-3.07.043-4.71,2.21-6.631,4.312M30.852,6.878c.324,0,.648.009.971,0,1.365-.044,1.69-.477,1.009-1.626a12.035,12.035,0,0,0-2.264-2.971,5.724,5.724,0,0,0-2.7-1.111c-1.125-.2-1.3.115-.987,1.191.2.69.423,1.373.638,2.059.72,2.294.911,2.435,3.33,2.459" transform="translate(0 0)" fill="#64697a"/>
    <path id="Path_219" data-name="Path 219" d="M48.888,174.9a4.26,4.26,0,0,1-4.122-4.15,4.081,4.081,0,1,1,8.161-.068,4.225,4.225,0,0,1-4.039,4.217" transform="translate(-41.519 -154.523)" fill="#64697a"/>
    <path id="Path_220" data-name="Path 220" d="M353.41,174.978a4.29,4.29,0,0,1-4.116-4.146,4.072,4.072,0,0,1,4.087-4.118,3.948,3.948,0,0,1,4.084,3.962,4.229,4.229,0,0,1-4.056,4.3" transform="translate(-323.961 -154.623)" fill="#64697a"/>
  </g>
</svg>
