<svg xmlns="http://www.w3.org/2000/svg" xmlns:xlink="http://www.w3.org/1999/xlink" width="28" height="28" viewBox="0 0 28 28">
  <defs>
    <clipPath id="clip-path">
      <rect id="Rectangle_273" data-name="Rectangle 273" width="28" height="28" transform="translate(0 0)" fill="#64697a"/>
    </clipPath>
  </defs>
  <g id="Group_606" data-name="Group 606" transform="translate(0)">
    <g id="Group_605" data-name="Group 605" clip-path="url(#clip-path)">
      <path id="Path_230" data-name="Path 230" d="M93.3,0a12.328,12.328,0,0,1,1.26.337A4.761,4.761,0,0,1,97.614,4.73c.014,2.151,0,4.3,0,6.452,0,.053,0,.107-.008.176H95.868v-.3c0-2.069.005-4.137,0-6.206a3.059,3.059,0,0,0-6.118-.111c-.019,2.1-.005,4.192-.006,6.288v.334h-1.75v-.287q0-3.076,0-6.151A4.8,4.8,0,0,1,92.186.044.758.758,0,0,0,92.313,0Z" transform="translate(-83.18)" fill="#64697a"/>
      <path id="Path_231" data-name="Path 231" d="M421.233,141.44l-.1.186a.872.872,0,0,1-1.645-.377c-.007-.155,0-.31,0-.464a.425.425,0,0,0-.434-.435c-.426-.011-.853,0-1.313,0,0,.278,0,.538,0,.8a.877.877,0,1,1-1.749,0q0-2.117,0-4.234a.872.872,0,0,1,.937-.939q1.038-.005,2.076,0a2.175,2.175,0,0,1,2.18,1.711,1.321,1.321,0,0,0,.056.148v.656c-.129.3-.26.607-.385.913a.211.211,0,0,0,0,.145c.125.305.256.608.385.911Zm-3.49-2.845c.454,0,.88.007,1.305,0a.428.428,0,0,0,.432-.407.418.418,0,0,0-.379-.454c-.449-.018-.9-.005-1.358-.005Z" transform="translate(-393.233 -128.533)" fill="#64697a"/>
      <path id="Path_232" data-name="Path 232" d="M421.215,268.218c-.033.1-.068.2-.1.307a2.168,2.168,0,0,1-2.031,1.548c-.747.013-1.494.01-2.24,0a.861.861,0,0,1-.877-.889q-.008-2.172,0-4.345a.861.861,0,0,1,.905-.888q1.066-.008,2.131,0a2.181,2.181,0,0,1,2.161,1.736.832.832,0,0,0,.05.122Zm-3.481-2.514v2.622c.445,0,.871.008,1.3,0a.417.417,0,0,0,.43-.436q.014-.872,0-1.745a.416.416,0,0,0-.431-.435c-.426-.011-.852,0-1.3,0" transform="translate(-393.215 -249.515)" fill="#64697a"/>
      <path id="Path_233" data-name="Path 233" d="M421.231,397.407c-.022.038-.046.074-.065.114a.872.872,0,0,1-1.518.179c-.555-.675-1.094-1.364-1.64-2.047-.074-.092-.148-.184-.252-.312-.011.105-.024.17-.024.236,0,.519,0,1.039,0,1.558a.875.875,0,1,1-1.748.009q-.005-2.132,0-4.263a.879.879,0,0,1,1.6-.559c.532.659,1.059,1.322,1.588,1.984.085.106.172.211.311.382v-.674c0-.373,0-.747,0-1.12a.876.876,0,0,1,1.693-.387.836.836,0,0,0,.056.088Z" transform="translate(-393.231 -370.5)" fill="#64697a"/>
      <path id="Path_234" data-name="Path 234" d="M421.233,10.486c-.02.059-.044.116-.059.176a2.192,2.192,0,0,1-2.125,1.682c-.427.006-.853,0-1.316,0,0,.277,0,.537,0,.8a.877.877,0,1,1-1.749,0q0-2.117,0-4.234a.872.872,0,0,1,.935-.942q1.024-.006,2.049,0a2.179,2.179,0,0,1,2.22,1.764.5.5,0,0,0,.046.1Zm-3.49.107c.46,0,.895.01,1.329,0a.415.415,0,0,0,.407-.428.4.4,0,0,0-.375-.427c-.449-.024-.9-.007-1.36-.007Z" transform="translate(-393.233 -7.533)" fill="#64697a"/>
      <path id="Path_235" data-name="Path 235" d="M92.4,429.025a10.023,10.023,0,0,1-1.506-.451,4.712,4.712,0,0,1-2.8-4.032c-.01-.1,0-.2,0-.312h1.733a3.085,3.085,0,0,0,1.122,2.338,2.978,2.978,0,0,0,1.962.706c1.641,0,2.73-1.081,3.076-3.048h1.751c-.056.382-.082.76-.171,1.123a4.789,4.789,0,0,1-4.023,3.63,1,1,0,0,0-.154.047Z" transform="translate(-83.268 -401.025)" fill="#64697a"/>
      <path id="Path_236" data-name="Path 236" d="M0,273.8c.022-.068.048-.134.066-.2a2.146,2.146,0,0,1,2.038-1.6c.18,0,.361,0,.539,0v4.768A2.163,2.163,0,0,1,.066,275.2c-.018-.069-.044-.135-.066-.2v-1.2" transform="translate(0 -257.116)" fill="#64697a"/>
      <path id="Path_237" data-name="Path 237" d="M86.056,248.345c-1.248,0-2.5.006-3.743,0a2.342,2.342,0,0,1-2.374-2.374q-.011-1.776,0-3.552a2.346,2.346,0,0,1,2.4-2.376c2.5,0,4.991-.005,7.487,0a2.336,2.336,0,0,1,2.36,2.359q.014,1.79,0,3.579a2.345,2.345,0,0,1-2.385,2.363H86.056" transform="translate(-75.562 -226.911)" fill="#64697a"/>
      <path id="Path_238" data-name="Path 238" d="M147.478,64.361H144a1.6,1.6,0,0,1-.02-.182c0-2.122,0-4.244,0-6.366a1.735,1.735,0,0,1,1.35-1.7,1.716,1.716,0,0,1,1.947.907,1.629,1.629,0,0,1,.189.675c.014,2.212.008,4.425.008,6.669" transform="translate(-136.107 -52.998)" fill="#64697a"/>
      <path id="Path_239" data-name="Path 239" d="M143.969,424.235h3.467a1.823,1.823,0,0,1-.628,1.775,1.642,1.642,0,0,1-1.866.216,1.811,1.811,0,0,1-.973-1.991" transform="translate(-136.081 -401.035)" fill="#64697a"/>
      <path id="Path_240" data-name="Path 240" d="M321.527,177.676c-.219,0-.437.006-.656,0a.873.873,0,0,1,.01-1.746q.656-.013,1.312,0a.873.873,0,1,1-.01,1.747c-.218.005-.437,0-.656,0" transform="translate(-302.508 -166.301)" fill="#64697a"/>
      <path id="Path_241" data-name="Path 241" d="M321.535,433.64c-.228,0-.456.009-.683,0a.876.876,0,0,1-.843-.87.865.865,0,0,1,.837-.872c.464-.014.929-.014,1.394,0a.872.872,0,0,1,.005,1.741c-.236.013-.474,0-.71,0" transform="translate(-302.508 -408.267)" fill="#64697a"/>
      <path id="Path_242" data-name="Path 242" d="M321.541,49.664c-.228,0-.456.007-.683,0a.872.872,0,0,1,.009-1.744q.669-.016,1.339,0a.873.873,0,0,1-.009,1.746c-.218.006-.437,0-.656,0" transform="translate(-302.509 -45.29)" fill="#64697a"/>
    </g>
  </g>
</svg>
