<svg xmlns="http://www.w3.org/2000/svg" xmlns:xlink="http://www.w3.org/1999/xlink" width="58.401" height="20.354" viewBox="0 0 58.401 20.354">
  <defs>
    <clipPath id="clip-path">
      <rect id="Rectangle_272" data-name="Rectangle 272" width="58.401" height="20.354" fill="#64697a"/>
    </clipPath>
  </defs>
  <g id="Group_602" data-name="Group 602" transform="translate(0)">
    <g id="Group_601" data-name="Group 601" transform="translate(0)" clip-path="url(#clip-path)">
      <path id="Path_221" data-name="Path 221" d="M29.471,18.291c-3.956,0-7.913-.031-11.868.021-1.048.014-1.345-.3-1.22-1.34.319-2.68-.369-5.026-2.734-6.579a5.845,5.845,0,0,0-6.22-.314,6.019,6.019,0,0,0-3.336,5.387C4,17.548,3.486,17.958,1.427,17.419a1.99,1.99,0,0,1-.974-.66c-.667-.836-.561-3.538.082-4.416a4.881,4.881,0,0,0,.637-1.155A4.225,4.225,0,0,1,4.613,8.4c4.1-.784,8.2-1.57,12.292-2.389a5.643,5.643,0,0,0,1.734-.66A41.26,41.26,0,0,1,28.78.706a17.256,17.256,0,0,1,3.382-.57,74.915,74.915,0,0,1,15.7.734,7.115,7.115,0,0,1,2.244.907c1.752.952,3.468,1.97,5.2,2.958A2.979,2.979,0,0,1,56.8,7.068a48.927,48.927,0,0,0,.9,5.35,7.963,7.963,0,0,1,.684,3.02c-.167,1.481-.562,1.925-2.04,2.108-.767.1-1.107-.1-1.034-.937a6.6,6.6,0,0,0-1.183-4.725,6.164,6.164,0,0,0-11.139,3.5c0,.111,0,.222,0,.333-.006,2.557-.006,2.557-2.533,2.557H29.471v.016M21.8,5.374a5.587,5.587,0,0,0,.78.22c.945.044,1.819.128,1.7,1.459-.01.122.548.43.834.42,2.951-.1,5.9-.266,8.851-.39a1.09,1.09,0,0,0,1.2-1.021q.286-1.86.645-3.708c.169-.869-.113-1.144-1.024-1.173A20.54,20.54,0,0,0,23.73,4.208c-.562.324-1.112.67-1.933,1.166M42.208,6.967c.41-.064,2.6-.142,2.6-.2,1.692-.1,1.258-.166,2.949-.281,1.056-.072,1.251-.454.577-1.318a22.785,22.785,0,0,0-2.425-2.71,3.145,3.145,0,0,0-1.76-.823c-1.822-.219-3.662-.288-5.494-.428a1.077,1.077,0,0,0-1.3,1.121c-.113,1.236-.344,2.458-.5,3.689-.093.734.211,1.007.969.993,1.569-.031,2.638-.022,4.176-.021a1.41,1.41,0,0,0,.215-.019" transform="translate(0 0)" fill="#64697a"/>
      <path id="Path_222" data-name="Path 222" d="M613.9,154.2a4.645,4.645,0,1,1,9.289.025,4.647,4.647,0,1,1-9.289-.025" transform="translate(-569.376 -138.665)" fill="#64697a"/>
      <path id="Path_223" data-name="Path 223" d="M82.095,158.974a4.81,4.81,0,0,1-4.581-4.862,4.648,4.648,0,1,1,9.3.134,4.81,4.81,0,0,1-4.714,4.728" transform="translate(-71.891 -138.636)" fill="#64697a"/>
    </g>
  </g>
</svg>
