<svg id="Group_604" data-name="Group 604" xmlns="http://www.w3.org/2000/svg" width="52.325" height="20.354" viewBox="0 0 52.325 20.354">
  <path id="Path_227" data-name="Path 227" d="M427.042,0c.737,0,1.284.062,1.4,1,.054.435.53.8.757,1.233,1.736,3.291,3.731,6.475,3.758,10.408.007.979.708,1.868.564,2.969-.2,1.527-.451,1.907-1.985,2.12-.637.088-1.274.182-1.914.247-1.121.114-1.234,0-1.137-1.11a5.143,5.143,0,0,0-2.7-5.041,4.836,4.836,0,0,0-5.375.4,4.947,4.947,0,0,0-2,5.1c.2,1.241.186,1.29-1.1,1.292q-10.661.023-21.321.035c-1.483,0-1.483,0-1.252-1.464a5.056,5.056,0,0,0-9.788-2.442,7.39,7.39,0,0,0-.2,2.356c.014.6-.19.828-.763.872-1.732.132-2.4-.318-2.641-2.038a3.665,3.665,0,0,1,.47-3.14,4.344,4.344,0,0,0,.567-1.726A3.335,3.335,0,0,1,384.8,8.557c1.942-.655,3.9-1.29,5.768-2.123a51.94,51.94,0,0,0,4.814-2.639C397.715,2.44,400.028,1,402.717.514a32.212,32.212,0,0,1,5.027-.371c2.633-.057,15.5-.129,19.3-.144M397,7.432a3.69,3.69,0,0,0,.589.094q4.212-.174,8.423-.359c.638-.027.794-.445.855-.981.138-1.213.227-2.438.469-3.632.17-.837-.04-1.032-.871-1.086-4.1-.27-7.467,1.469-10.644,3.767a2.907,2.907,0,0,0-.382.515c1.249-.053,1.951.352,1.561,1.682m19.174-.539c.655.009.947-.255.914-.933-.057-1.192-.092-2.385-.091-3.578,0-.771-.395-1.028-1.088-1.017q-3.121.052-6.241.1a.8.8,0,0,0-.917.79c-.153,1.367-.333,2.731-.512,4.1-.081.614.18.809.781.79,1.161-.037,5.932-.261,7.155-.244m1.991-2.667a13.491,13.491,0,0,1,.028,1.694c0,.678.392.968,1.072.926,2.537-.157,5.077-.266,7.615-.415.916-.054,1.127-.459.58-1.163-1.292-1.665-2.7-3.235-4.942-3.539a20.354,20.354,0,0,0-3.747-.166c-.4.015-.541.46-.58.74a14.037,14.037,0,0,0-.027,1.924" transform="translate(-381.216 0.001)" fill="#64697a"/>
  <path id="Path_228" data-name="Path 228" d="M414.093,85.7a4.112,4.112,0,0,1-3.915-4.037,3.915,3.915,0,0,1,3.962-3.85,3.868,3.868,0,0,1,3.847,3.944,4.051,4.051,0,0,1-3.894,3.942" transform="translate(-405.549 -65.375)" fill="#64697a"/>
  <path id="Path_229" data-name="Path 229" d="M628.615,81.745a4.04,4.04,0,0,1-3.882,3.984,4.094,4.094,0,0,1-3.876-4.1,3.88,3.88,0,0,1,7.759.113" transform="translate(-582.555 -65.374)" fill="#64697a"/>
</svg>
