<svg id="Group_603" data-name="Group 603" xmlns="http://www.w3.org/2000/svg" width="51.549" height="19.004" viewBox="0 0 51.549 19.004">
  <path id="Path_224" data-name="Path 224" d="M41.015,8.468a23.179,23.179,0,0,1,2.548.29c.61.079,1.138.2,1.067,1.051-.02.245.315.575.561.776,1.279,1.047,2.561,2.091,3.883,3.082a2.782,2.782,0,0,1,1.282,2.392,9.966,9.966,0,0,0,.147,1.92,3.277,3.277,0,0,0,.5.892c.2.344.541.69.545,1.038a23.709,23.709,0,0,1-.2,2.926,1.155,1.155,0,0,1-1.244,1.1c-.214.006-.429.013-.643.006-.7-.022-1.557.184-2.055-.147-.417-.278-.415-1.185-.6-1.812a5.079,5.079,0,0,0-5.164-3.605,4.932,4.932,0,0,0-4.6,4.27c-.164,1.081-.572,1.313-1.577,1.307q-10.243-.053-20.487.008c-.942,0-1.355-.236-1.446-1.252a5.119,5.119,0,0,0-4.949-4.341,5.1,5.1,0,0,0-5,4.281c-.077.546.029,1.2-.843,1.281-1.65.147-2.191.018-2.44-.968a5.153,5.153,0,0,1,.26-4.143,1.551,1.551,0,0,0,.155-.612,2.673,2.673,0,0,1,2.345-2.652c3.051-.483,6.111-.912,9.153-1.444a10.555,10.555,0,0,0,2.821-.923,24.033,24.033,0,0,0,3.036-1.89,15.763,15.763,0,0,1,8.977-2.8c2.357-.037,11.665-.066,13.961-.026M19.207,14.879c2.8-.146,5.539-.282,8.28-.451a.7.7,0,0,0,.5-.436c.249-1.37.447-2.749.66-4.121-3.719-.681-10,1.28-10.949,3.368,1.375.286,1.375.286,1.506,1.64m15.7-.588c2.41-.126,2.43-.214,1.879-2.594-.227-.981-.688-1.547-1.663-1.635-1.457-.131-2.917-.25-4.377-.284a1.058,1.058,0,0,0-.771.66,26.555,26.555,0,0,0-.448,3.36c-.015.2.383.6.611.612.943.07,4.127-.086,4.769-.12m12.9-.77c-1.837-1.05-2.98-2.837-5.269-3.3,1.14,2.182,3.585,3.746,5.269,3.3M37.546,10.856c.172.945.3,1.681.441,2.412a1.2,1.2,0,0,0,1.883.606.593.593,0,0,0,.126-.54,5.651,5.651,0,0,0-2.45-2.478" transform="translate(0 -8.449)" fill="#64697a"/>
  <path id="Path_225" data-name="Path 225" d="M33.229,78.223a3.839,3.839,0,0,1,3.876,3.815,4.111,4.111,0,0,1-3.835,4.036,4.11,4.11,0,0,1-3.922-4.04,3.844,3.844,0,0,1,3.881-3.811" transform="translate(-24.657 -67.071)" fill="#64697a"/>
  <path id="Path_226" data-name="Path 226" d="M238.786,81.932a3.838,3.838,0,0,1,7.672.2,3.843,3.843,0,1,1-7.672-.2" transform="translate(-200.62 -67.087)" fill="#64697a"/>
</svg>
