<svg id="Group_608" data-name="Group 608" xmlns="http://www.w3.org/2000/svg" xmlns:xlink="http://www.w3.org/1999/xlink" width="28" height="28" viewBox="0 0 28 28">
  <defs>
    <clipPath id="clip-path">
      <rect id="Rectangle_274" data-name="Rectangle 274" width="28" height="28" transform="translate(0 0)" fill="#64697a"/>
    </clipPath>
  </defs>
  <g id="Group_607" data-name="Group 607" clip-path="url(#clip-path)">
    <path id="Path_243" data-name="Path 243" d="M366.162,0a1,1,0,0,1,.6,1.1c-.02.217,0,.437-.005.655a.82.82,0,0,1-.819.816.256.256,0,0,1-.055,0,1.659,1.659,0,0,0-1.667.689c-.518.607-1.118,1.145-1.665,1.7l-2.344-2.343c.092-.083.216-.185.33-.3.607-.6,1.206-1.214,1.819-1.811.192-.187.418-.338.629-.505Z" transform="translate(-340.514)" fill="#64697a"/>
    <path id="Path_244" data-name="Path 244" d="M441.27,159.233c-.054.163-.1.331-.164.489a2.04,2.04,0,0,1-2.315,1.211,2.014,2.014,0,0,1-1.611-2.024,2.065,2.065,0,0,1,.253-.907c.385-.667.807-1.316,1.254-1.944a.66.66,0,0,1,1.112.047,8.687,8.687,0,0,1,1.471,2.526Z" transform="translate(-413.27 -147.257)" fill="#64697a"/>
    <path id="Path_245" data-name="Path 245" d="M304.324,63.571l-4.28-4.281c.211-.2.419-.429.655-.621a.793.793,0,0,1,1.051.06q1.565,1.548,3.113,3.112a.807.807,0,0,1,.009,1.136c-.182.2-.37.4-.548.593" transform="translate(-283.635 -55.299)" fill="#64697a"/>
    <path id="Path_246" data-name="Path 246" d="M157.384,297.549h-.791l-.98,6.255h.791c1.243,0,2.374-.678,2.769-3.128.4-2.468-.546-3.127-1.79-3.127" transform="translate(-147.103 -281.277)" fill="#64697a"/>
    <path id="Path_247" data-name="Path 247" d="M20.459,84.1a2.157,2.157,0,0,0-.638-1.605q-2.46-2.469-4.93-4.929a2.152,2.152,0,0,0-1.585-.621q-5.113,0-10.225,0A2.987,2.987,0,0,0,.043,79.47a.49.49,0,0,1-.043.1V98.107A8.03,8.03,0,0,0,.53,99.4,2.788,2.788,0,0,0,2.5,100.685a.661.661,0,0,1,.123.048h15.2c.174-.046.35-.087.522-.14a3,3,0,0,0,2.106-2.964q0-5.769,0-11.538c0-.665,0-1.331,0-2m-5.882,8.037a5.416,5.416,0,0,1-5.558,4.936H6.984c-.678,0-1.243.019-1.13-.659l1.225-7.687A1.866,1.866,0,0,1,9.019,87.2h1.545c2.638,0,4.559,1.545,4.013,4.936m1.359-8.679q-5.5,0-11.009,0a1.611,1.611,0,0,1-1.643-1.7,1.593,1.593,0,0,1,1.533-1.526c2.65-.013,5.3-.007,7.95,0a.407.407,0,0,1,.259.109q1.513,1.5,3.016,3.011a.848.848,0,0,1,.066.1c-.081,0-.126.008-.171.008" transform="translate(0 -72.732)" fill="#64697a"/>
  </g>
</svg>
