<svg xmlns="http://www.w3.org/2000/svg" width="56.501" height="43.945" viewBox="0 0 56.501 43.945">
  <path id="Icon_awesome-cc-visa" data-name="Icon awesome-cc-visa" d="M46.113,21.8s.745,3.649.912,4.414H43.749c.324-.873,1.569-4.267,1.569-4.267-.02.029.324-.893.52-1.462l.275,1.314ZM56.5,6.958V41.486a4.71,4.71,0,0,1-4.708,4.708H4.708A4.71,4.71,0,0,1,0,41.486V6.958A4.71,4.71,0,0,1,4.708,2.25H51.792A4.71,4.71,0,0,1,56.5,6.958ZM14.959,31.6l6.2-15.224H16.989l-3.855,10.4-.422-2.109-1.373-7a1.64,1.64,0,0,0-1.785-1.285H3.208l-.069.3a15.566,15.566,0,0,1,4.139,1.677L10.79,31.6Zm9.26.02,2.472-15.243H22.747L20.285,31.619h3.933Zm13.723-4.983c.02-1.736-1.04-3.06-3.306-4.149-1.383-.7-2.227-1.167-2.227-1.883.02-.647.716-1.314,2.266-1.314a6.759,6.759,0,0,1,2.933.579l.353.167.54-3.3a9.8,9.8,0,0,0-3.531-.647c-3.894,0-6.631,2.08-6.651,5.042-.029,2.187,1.962,3.4,3.453,4.139,1.52.745,2.04,1.236,2.04,1.893-.02,1.02-1.236,1.491-2.364,1.491a7.857,7.857,0,0,1-3.7-.814l-.52-.245-.549,3.423a12.036,12.036,0,0,0,4.394.814C35.215,31.844,37.912,29.794,37.942,26.635Zm13.85,4.983L48.614,16.375H45.563a1.94,1.94,0,0,0-2.06,1.265L37.647,31.619h4.139s.677-1.883.824-2.286h5.062c.118.54.471,2.286.471,2.286Z" transform="translate(0 -2.25)" fill="rgba(0,0,0,0.7)"/>
</svg>
