<svg xmlns="http://www.w3.org/2000/svg" width="11.464" height="20" viewBox="0 0 11.464 20">
  <path id="Icon_awesome-wine-glass" data-name="Icon awesome-wine-glass" d="M8.6,18.125H7.006V13.547A5.663,5.663,0,0,0,11.44,7.525L10.805.568A.627.627,0,0,0,10.18,0h-8.9A.626.626,0,0,0,.659.568L.024,7.526a5.663,5.663,0,0,0,4.434,6.022v4.577H2.866a1.578,1.578,0,0,0-1.592,1.563A.315.315,0,0,0,1.592,20H9.872a.315.315,0,0,0,.318-.312A1.578,1.578,0,0,0,8.6,18.125Z" transform="translate(0)" fill="#64697a"/>
</svg>
